<?xml version="1.0" encoding="utf-8"?><svg xmlns="http://www.w3.org/2000/svg" width="42" height="25.307" viewBox="0 0 42 25.307"><g transform="translate(6.022 -4)"><path d="M40,1H0A1,1,0,0,1-1,0,1,1,0,0,1,0-1H40a1,1,0,0,1,1,1A1,1,0,0,1,40,1Z" transform="translate(-5.022 16.654)" fill="#fff"/><path d="M12,29.307a1,1,0,0,1-.707-1.707L22.239,16.654,11.293,5.707a1,1,0,0,1,1.414-1.414L24.361,15.946a1,1,0,0,1,0,1.414L12.707,29.014A1,1,0,0,1,12,29.307Z" transform="translate(11.302)" fill="#fff"/></g></svg>