<svg width="25" height="15" viewBox="0 0 25 15" fill="none" xmlns="http://www.w3.org/2000/svg">
<g clip-path="url(#clip0_1655_10375)">
<path d="M6.8744 5.35888C6.8744 5.65098 6.90598 5.88782 6.96124 6.06151C7.0244 6.23519 7.10335 6.42467 7.21387 6.62993C7.25335 6.69309 7.26914 6.75625 7.26914 6.81151C7.26914 6.89046 7.22177 6.9694 7.11914 7.04835L6.62177 7.37993C6.55071 7.4273 6.47966 7.45098 6.4165 7.45098C6.33756 7.45098 6.25861 7.41151 6.17966 7.34046C6.06914 7.22203 5.9744 7.09572 5.89545 6.9694C5.8165 6.83519 5.73756 6.68519 5.65071 6.50361C5.03493 7.22993 4.26124 7.59309 3.32966 7.59309C2.6665 7.59309 2.13756 7.40361 1.75071 7.02467C1.36387 6.64572 1.1665 6.14046 1.1665 5.50888C1.1665 4.83782 1.40335 4.29309 1.88493 3.88256C2.3665 3.47203 3.00598 3.26677 3.81914 3.26677C4.08756 3.26677 4.36387 3.29046 4.65598 3.32993C4.94808 3.3694 5.24808 3.43256 5.56387 3.50361V2.9273C5.56387 2.3273 5.43756 1.90888 5.19282 1.66414C4.94019 1.4194 4.51387 1.30098 3.90598 1.30098C3.62966 1.30098 3.34545 1.33256 3.05335 1.40361C2.76124 1.47467 2.47703 1.56151 2.20071 1.67203C2.0744 1.7273 1.97966 1.75888 1.9244 1.77467C1.86914 1.79046 1.82966 1.79835 1.79808 1.79835C1.68756 1.79835 1.63229 1.7194 1.63229 1.55361V1.16677C1.63229 1.04046 1.64808 0.945719 1.68756 0.890455C1.72703 0.835192 1.79808 0.779929 1.90861 0.724666C2.18492 0.582561 2.5165 0.46414 2.90335 0.369403C3.29019 0.266771 3.70071 0.219403 4.13492 0.219403C5.0744 0.219403 5.76124 0.432561 6.20335 0.858876C6.63756 1.28519 6.85861 1.93256 6.85861 2.80098V5.35888H6.8744ZM3.66914 6.55888C3.92966 6.55888 4.19808 6.51151 4.48229 6.41677C4.7665 6.32203 5.01914 6.14835 5.23229 5.91151C5.35861 5.76151 5.45335 5.59572 5.50071 5.40624C5.54808 5.21677 5.57966 4.98782 5.57966 4.7194V4.38782C5.35071 4.33256 5.10598 4.28519 4.85335 4.25361C4.60071 4.22203 4.35598 4.20624 4.11124 4.20624C3.58229 4.20624 3.19545 4.30888 2.93493 4.52203C2.6744 4.73519 2.54808 5.03519 2.54808 5.42993C2.54808 5.80098 2.64282 6.0773 2.84019 6.26677C3.02966 6.46414 3.30598 6.55888 3.66914 6.55888ZM10.0086 7.41151C9.8665 7.41151 9.77177 7.38782 9.70861 7.33256C9.64545 7.28519 9.59019 7.17467 9.54282 7.02467L7.68756 0.922034C7.64019 0.76414 7.6165 0.661508 7.6165 0.606245C7.6165 0.479929 7.67966 0.408876 7.80598 0.408876H8.57966C8.72966 0.408876 8.83229 0.432561 8.88756 0.487824C8.95072 0.535192 8.99808 0.645719 9.04545 0.795719L10.3718 6.02203L11.6033 0.795719C11.6428 0.637824 11.6902 0.535192 11.7533 0.487824C11.8165 0.440455 11.927 0.408876 12.0691 0.408876H12.7007C12.8507 0.408876 12.9533 0.432561 13.0165 0.487824C13.0797 0.535192 13.1349 0.645719 13.1665 0.795719L14.4139 6.08519L15.7797 0.795719C15.827 0.637824 15.8823 0.535192 15.9376 0.487824C16.0007 0.440455 16.1033 0.408876 16.2455 0.408876H16.9797C17.106 0.408876 17.177 0.472034 17.177 0.606245C17.177 0.645719 17.1691 0.685192 17.1612 0.732561C17.1533 0.779929 17.1376 0.843087 17.106 0.929929L15.2033 7.03256C15.156 7.19045 15.1007 7.29309 15.0376 7.34046C14.9744 7.38782 14.8718 7.4194 14.7376 7.4194H14.0586C13.9086 7.4194 13.806 7.39572 13.7428 7.34046C13.6797 7.28519 13.6244 7.18256 13.5928 7.02467L12.3691 1.93256L11.1533 7.01677C11.1139 7.17467 11.0665 7.2773 11.0033 7.33256C10.9402 7.38782 10.8297 7.41151 10.6876 7.41151H10.0086ZM20.1533 7.62467C19.7428 7.62467 19.3323 7.5773 18.9376 7.48256C18.5428 7.38782 18.2349 7.28519 18.0297 7.16677C17.9033 7.09572 17.8165 7.01677 17.7849 6.94572C17.7533 6.87467 17.7376 6.79572 17.7376 6.72467V6.32203C17.7376 6.15624 17.8007 6.0773 17.9191 6.0773C17.9665 6.0773 18.0139 6.08519 18.0612 6.10098C18.1086 6.11677 18.1797 6.14835 18.2586 6.17993C18.527 6.29835 18.8191 6.39309 19.127 6.45624C19.4428 6.5194 19.7507 6.55098 20.0665 6.55098C20.5639 6.55098 20.9507 6.46414 21.2191 6.29045C21.4876 6.11677 21.6297 5.86414 21.6297 5.54045C21.6297 5.3194 21.5586 5.13782 21.4165 4.98782C21.2744 4.83782 21.006 4.70361 20.6191 4.5773L19.4744 4.22203C18.8981 4.04046 18.4718 3.77203 18.2112 3.41677C17.9507 3.0694 17.8165 2.68256 17.8165 2.27203C17.8165 1.94046 17.8876 1.64835 18.0297 1.39572C18.1718 1.14309 18.3612 0.922034 18.5981 0.74835C18.8349 0.566771 19.1033 0.432561 19.4191 0.337824C19.7349 0.243087 20.0665 0.203613 20.4139 0.203613C20.5876 0.203613 20.7691 0.211508 20.9428 0.235192C21.1244 0.258876 21.2902 0.290455 21.456 0.322034C21.6139 0.361508 21.7639 0.400982 21.906 0.44835C22.0481 0.495719 22.1586 0.543087 22.2376 0.590455C22.3481 0.653613 22.427 0.716771 22.4744 0.787824C22.5218 0.850982 22.5455 0.937824 22.5455 1.04835V1.4194C22.5455 1.58519 22.4823 1.67203 22.3639 1.67203C22.3007 1.67203 22.1981 1.64046 22.0639 1.5773C21.6139 1.37203 21.1086 1.2694 20.5481 1.2694C20.0981 1.2694 19.7428 1.34046 19.4981 1.49046C19.2533 1.64046 19.127 1.8694 19.127 2.19309C19.127 2.41414 19.206 2.60361 19.3639 2.75361C19.5218 2.90361 19.8139 3.05361 20.2323 3.18782L21.3533 3.54309C21.9218 3.72467 22.3323 3.9773 22.577 4.30098C22.8218 4.62467 22.9402 4.99572 22.9402 5.40624C22.9402 5.74572 22.8691 6.05361 22.7349 6.32203C22.5928 6.59046 22.4033 6.8273 22.1586 7.01677C21.9139 7.21414 21.6218 7.35624 21.2823 7.45888C20.927 7.5694 20.556 7.62467 20.1533 7.62467Z" fill="#252F3E"/>
<path fill-rule="evenodd" clip-rule="evenodd" d="M21.6455 11.4612C19.0481 13.3796 15.2744 14.398 12.0297 14.398C7.48232 14.398 3.38495 12.7164 0.290218 9.9217C0.045481 9.70065 0.266534 9.40065 0.558639 9.57433C3.90601 11.5164 8.03496 12.6928 12.306 12.6928C15.1876 12.6928 18.3534 12.0928 21.2665 10.8612C21.7007 10.6638 22.0718 11.1454 21.6455 11.4612Z" fill="#FF9900"/>
<path fill-rule="evenodd" clip-rule="evenodd" d="M22.7268 10.2297C22.3953 9.80335 20.5321 10.0244 19.6874 10.127C19.4347 10.1586 19.3953 9.93756 19.6242 9.77177C21.1084 8.72966 23.5479 9.02966 23.8321 9.37703C24.1163 9.73229 23.7531 12.1718 22.3637 13.3402C22.1505 13.5218 21.9453 13.427 22.04 13.1902C22.3558 12.4086 23.0584 10.6481 22.7268 10.2297Z" fill="#FF9900"/>
</g>
<defs>
<clipPath id="clip0_1655_10375">
<rect width="24" height="14.3684" fill="white" transform="translate(0.0532227 0.116699)"/>
</clipPath>
</defs>
</svg>
