<svg width="154" height="54" viewBox="0 0 154 54" fill="none" xmlns="http://www.w3.org/2000/svg">
<path d="M76.667 31.4857L72.6479 29.1173L72.3608 29.5838C71.4636 31.0192 70.2077 31.7369 68.6646 31.7369C66.0091 31.7369 64.0354 29.7273 64.0354 27.1077C64.0354 24.4522 66.045 22.4786 68.6646 22.4786C70.2435 22.4786 71.3919 23.1604 72.3608 24.6317L72.6479 25.0982L76.667 22.7298L76.3081 22.2274C74.3703 19.4283 71.8943 18.1006 68.6287 18.1006C62.4924 18.1006 59.1909 22.7656 59.1909 27.1436C59.1909 31.5216 62.4924 36.1866 68.6287 36.1866C71.7507 36.1866 74.6933 34.6077 76.3081 32.024L76.667 31.4857Z" fill="black"/>
<path d="M76.4517 36.115H81.9779L83.6287 32.0241H91.9181L93.5689 36.115H99.1311L89.2268 12.1797H84.2746L85.6024 15.3734L76.4517 36.115ZM87.8272 21.6174L90.0521 27.2514H85.5306L87.8272 21.6174Z" fill="black"/>
<path d="M101.428 36.1509H106.272V25.3854H109.43V20.8638H106.272V18.7466C106.272 17.8136 106.882 16.8447 108.031 16.8447C108.641 16.8447 109.035 16.9524 109.394 17.0959L109.933 17.3112L111.942 12.8974L111.404 12.718C110.507 12.3591 109.251 12.2156 108.354 12.2156C106.165 12.2156 104.334 12.9333 103.114 14.2969C102.038 15.4811 101.428 17.1318 101.428 18.962V20.8997H99.2747V25.4212H101.428V36.1509Z" fill="black"/>
<path d="M51.8346 22.3351V36.115H57.1098V12.0361L46.739 19.8591L36.3323 12.0361V36.0791L41.6074 36.115V22.3351L46.739 26.1389L51.8346 22.3351Z" fill="black"/>
<path d="M120.375 18.1006C114.275 18.1006 110.973 22.7298 110.973 27.1077C110.973 31.4857 114.275 36.1149 120.375 36.1149C123.174 36.0789 125.794 34.823 127.839 32.4905L123.892 30.3374C122.887 31.378 121.631 31.9163 120.267 31.9163C118.258 31.9163 116.499 30.5886 116.033 28.8302H129.239V27.646C129.275 21.079 124.071 18.1365 120.375 18.1006ZM116.141 24.9187C116.787 23.268 118.15 22.335 119.909 22.335C121.703 22.335 123.102 23.268 123.82 24.9546L116.141 24.9187Z" fill="black"/>
<path d="M140.22 18.1365C134.119 18.1365 130.818 22.7656 130.818 27.1436C130.818 31.5216 134.119 36.1507 140.22 36.1507C143.019 36.1148 145.638 34.8589 147.684 32.5264L143.736 30.3733C142.731 31.4139 141.475 31.9522 140.112 31.9522C138.102 31.9522 136.344 30.6244 135.877 28.8661H149.083V27.6819C149.119 21.1149 143.916 18.1365 140.22 18.1365ZM135.985 24.9187C136.631 23.268 137.995 22.2991 139.753 22.335C141.547 22.335 142.947 23.268 143.664 24.9546L135.985 24.9187Z" fill="black"/>
<path d="M148.473 17.3113H150.519V17.706H149.693V19.8591H149.263V17.706H148.473V17.3113Z" fill="black"/>
<path d="M150.842 17.3113H151.452L152.169 19.2849L152.851 17.3113H153.461V19.8591H153.031V17.8854L152.313 19.8591H151.954L151.236 17.8854V19.8591H150.806V17.3113H150.842Z" fill="black"/>
<path d="M13.0783 18.0287L0.052002 12V35.9712L13.0783 41.9999V36.1147L5.39888 32.5621V20.3612L13.0783 23.9138V18.0287Z" fill="black"/>
<path d="M13.0786 18.0289L26.1408 12.0002V35.9714L13.0786 42.0001V36.115L20.7939 32.5623V20.3614L13.0786 23.9141V18.0289Z" fill="black"/>
</svg>
