<svg width="100" height="54" viewBox="0 0 100 54" fill="none" xmlns="http://www.w3.org/2000/svg">
<path d="M99.9936 10.4345C99.4802 10.6848 98.9732 10.9607 98.447 11.1725C96.0021 12.1607 93.5571 13.1362 91.1057 14.1116C87.05 15.7223 82.9814 17.3074 78.9321 18.9374C74.4336 20.747 69.9608 22.6016 65.4687 24.4177C58.2621 27.3311 51.0556 30.2446 43.8361 33.1323C37.0659 35.8468 30.315 38.6063 23.487 41.186C20.7661 42.2128 17.9104 43.0085 15.0483 43.5411C10.6332 44.3625 6.50695 43.4385 2.92612 40.5956C0.449055 38.6319 -0.28893 36.0073 0.0961059 32.9783C0.538897 29.5002 2.0662 26.4327 3.83095 23.4679C6.10266 19.6561 8.82358 16.1779 11.7178 12.8217C11.7884 12.7447 11.8204 12.6356 11.8718 12.5458C11.936 12.5843 11.9937 12.6292 12.0579 12.6677C11.9167 12.9821 11.7884 13.3094 11.6279 13.6175C10.5177 15.8186 9.92735 18.1801 9.9466 20.6123C9.97227 24.7001 12.8215 28.0563 16.8131 29.083C20.0345 29.9109 23.2047 29.6542 26.3748 28.8456C32.715 27.2285 39.0553 25.5921 45.3955 23.9749C49.2395 22.9995 53.0898 22.0626 56.9338 21.0871C62.0098 19.8037 67.0859 18.4882 72.1619 17.2047C78.7396 15.5426 85.3237 13.8998 91.9014 12.2249C94.2694 11.6217 96.6245 10.9479 98.9925 10.319C99.2941 10.242 99.6085 10.2163 99.9166 10.1714C99.9422 10.2548 99.9743 10.3447 100 10.4281L99.9936 10.4345Z" fill="black"/>
</svg>
