<svg width="24" height="24" viewBox="0 0 24 24" fill="none" xmlns="http://www.w3.org/2000/svg">
<path d="M11.2002 3.8C11.2002 2.80589 12.0061 2 13.0002 2H20.2002C21.1943 2 22.0002 2.80589 22.0002 3.8V18.2C22.0002 19.1941 21.1943 20 20.2002 20H13.9002" stroke="#1A1818" stroke-width="1.5" stroke-linecap="round" stroke-linejoin="round" stroke-dasharray="3.8 3.8"/>
<path d="M11 4H3.8C2.80589 4 2 4.80589 2 5.8V20.2C2 21.1941 2.80589 22 3.8 22H11C11.9941 22 12.8 21.1941 12.8 20.2V5.8C12.8 4.80589 11.9941 4 11 4Z" stroke="#1A1818" stroke-width="1.5" stroke-linecap="round" stroke-linejoin="round"/>
<circle cx="7.4002" cy="19.75" r="0.45" fill="#1A1818"/>
<circle cx="7.39961" cy="13" r="1.8" fill="#1A1818"/>
</svg>
