<svg width="99" height="56" viewBox="0 0 99 56" fill="none" xmlns="http://www.w3.org/2000/svg">
<g clip-path="url(#clip0_2331_3049)">
<path d="M13.2213 9.53437C13.1817 9.41051 13.107 9.30117 13.0065 9.21993C12.906 9.1387 12.7841 9.08915 12.6559 9.07745L9.08423 8.75323L7.67107 5.40458C7.6199 5.28552 7.5355 5.18418 7.42821 5.113C7.32093 5.04182 7.19544 5.00391 7.06715 5.00391C6.93887 5.00391 6.81338 5.04182 6.70609 5.113C6.59881 5.18418 6.5144 5.28552 6.46324 5.40458L5.04893 8.75265L1.47605 9.07686C1.34805 9.08912 1.22639 9.13902 1.12608 9.22043C1.02578 9.30183 0.951209 9.41117 0.911579 9.53495C0.87195 9.65874 0.868991 9.79155 0.903069 9.91702C0.937148 10.0425 1.00677 10.1551 1.10335 10.241L3.80314 12.6362L3.00712 16.1863C2.97846 16.3133 2.98728 16.446 3.03249 16.568C3.0777 16.69 3.15731 16.7959 3.26144 16.8725C3.36556 16.9491 3.48963 16.9931 3.61824 16.999C3.74684 17.0049 3.87433 16.9725 3.98489 16.9057L7.06773 15.0431L10.1477 16.9057C10.2583 16.9719 10.3857 17.0039 10.514 16.9977C10.6424 16.9916 10.7662 16.9475 10.8701 16.8711C10.974 16.7946 11.0536 16.689 11.099 16.5673C11.1444 16.4456 11.1536 16.3132 11.1255 16.1863L10.326 12.6356L13.0292 10.241C13.1261 10.1551 13.1959 10.0423 13.2301 9.91655C13.2642 9.79084 13.2612 9.65777 13.2213 9.53379V9.53437Z" fill="#FFA500"/>
</g>
<g clip-path="url(#clip1_2331_3049)">
<path d="M26.5968 9.53437C26.5572 9.41051 26.4825 9.30117 26.382 9.21993C26.2815 9.1387 26.1596 9.08915 26.0314 9.07745L22.4597 8.75323L21.0466 5.40458C20.9954 5.28552 20.911 5.18418 20.8037 5.113C20.6964 5.04182 20.5709 5.00391 20.4426 5.00391C20.3144 5.00391 20.1889 5.04182 20.0816 5.113C19.9743 5.18418 19.8899 5.28552 19.8387 5.40458L18.4244 8.75265L14.8515 9.07686C14.7235 9.08912 14.6019 9.13902 14.5016 9.22043C14.4013 9.30183 14.3267 9.41117 14.2871 9.53495C14.2474 9.65874 14.2445 9.79155 14.2786 9.91702C14.3126 10.0425 14.3823 10.1551 14.4788 10.241L17.1786 12.6362L16.3826 16.1863C16.3539 16.3133 16.3628 16.446 16.408 16.568C16.4532 16.69 16.5328 16.7959 16.6369 16.8725C16.7411 16.9491 16.8651 16.9931 16.9937 16.999C17.1223 17.0049 17.2498 16.9725 17.3604 16.9057L20.4432 15.0431L23.5232 16.9057C23.6338 16.9719 23.7611 17.0039 23.8895 16.9977C24.0179 16.9916 24.1417 16.9475 24.2456 16.8711C24.3495 16.7946 24.4291 16.689 24.4745 16.5673C24.5198 16.4456 24.529 16.3132 24.5009 16.1863L23.7015 12.6356L26.4047 10.241C26.5016 10.1551 26.5714 10.0423 26.6055 9.91655C26.6397 9.79084 26.6367 9.65777 26.5968 9.53379V9.53437Z" fill="#FFA500"/>
</g>
<g clip-path="url(#clip2_2331_3049)">
<path d="M39.9728 9.53437C39.9332 9.41051 39.8585 9.30117 39.7579 9.21993C39.6574 9.1387 39.5355 9.08915 39.4074 9.07745L35.8357 8.75323L34.4225 5.40458C34.3714 5.28552 34.287 5.18418 34.1797 5.113C34.0724 5.04182 33.9469 5.00391 33.8186 5.00391C33.6903 5.00391 33.5648 5.04182 33.4576 5.113C33.3503 5.18418 33.2659 5.28552 33.2147 5.40458L31.8004 8.75265L28.2275 9.07686C28.0995 9.08912 27.9779 9.13902 27.8775 9.22043C27.7772 9.30183 27.7027 9.41117 27.663 9.53495C27.6234 9.65874 27.6205 9.79155 27.6545 9.91702C27.6886 10.0425 27.7582 10.1551 27.8548 10.241L30.5546 12.6362L29.7586 16.1863C29.7299 16.3133 29.7387 16.446 29.784 16.568C29.8292 16.69 29.9088 16.7959 30.0129 16.8725C30.117 16.9491 30.2411 16.9931 30.3697 16.999C30.4983 17.0049 30.6258 16.9725 30.7364 16.9057L33.8192 15.0431L36.8992 16.9057C37.0098 16.9719 37.1371 17.0039 37.2655 16.9977C37.3939 16.9916 37.5176 16.9475 37.6216 16.8711C37.7255 16.7946 37.8051 16.689 37.8504 16.5673C37.8958 16.4456 37.905 16.3132 37.8769 16.1863L37.0775 12.6356L39.7807 10.241C39.8775 10.1551 39.9474 10.0423 39.9815 9.91655C40.0157 9.79084 40.0126 9.65777 39.9728 9.53379V9.53437Z" fill="#FFA500"/>
</g>
<g clip-path="url(#clip3_2331_3049)">
<path d="M53.3484 9.53437C53.3088 9.41051 53.2341 9.30117 53.1336 9.21993C53.033 9.1387 52.9111 9.08915 52.783 9.07745L49.2113 8.75323L47.7981 5.40458C47.747 5.28552 47.6626 5.18418 47.5553 5.113C47.448 5.04182 47.3225 5.00391 47.1942 5.00391C47.0659 5.00391 46.9405 5.04182 46.8332 5.113C46.7259 5.18418 46.6415 5.28552 46.5903 5.40458L45.176 8.75265L41.6031 9.07686C41.4751 9.08912 41.3535 9.13902 41.2532 9.22043C41.1529 9.30183 41.0783 9.41117 41.0387 9.53495C40.999 9.65874 40.9961 9.79155 41.0301 9.91702C41.0642 10.0425 41.1338 10.1551 41.2304 10.241L43.9302 12.6362L43.1342 16.1863C43.1055 16.3133 43.1144 16.446 43.1596 16.568C43.2048 16.69 43.2844 16.7959 43.3885 16.8725C43.4926 16.9491 43.6167 16.9931 43.7453 16.999C43.8739 17.0049 44.0014 16.9725 44.112 16.9057L47.1948 15.0431L50.2748 16.9057C50.3854 16.9719 50.5127 17.0039 50.6411 16.9977C50.7695 16.9916 50.8932 16.9475 50.9972 16.8711C51.1011 16.7946 51.1807 16.689 51.2261 16.5673C51.2714 16.4456 51.2806 16.3132 51.2525 16.1863L50.4531 12.6356L53.1563 10.241C53.2532 10.1551 53.323 10.0423 53.3571 9.91655C53.3913 9.79084 53.3882 9.65777 53.3484 9.53379V9.53437Z" fill="#FFA500"/>
</g>
<g clip-path="url(#clip4_2331_3049)">
<path d="M66.7423 9.53921C66.6975 9.40123 66.5637 9.31469 66.3409 9.2796L62.6076 8.73141L60.9334 5.30625C60.8294 5.10046 60.7079 4.99756 60.5688 4.99756C60.4297 4.99756 60.3082 5.10046 60.2042 5.30625L58.5324 8.732L54.7967 9.28019C54.5739 9.31528 54.4401 9.40182 54.3953 9.5398C54.3505 9.67779 54.4074 9.8274 54.5659 9.98864L57.2749 12.6527L56.6321 16.4156C56.6027 16.5463 56.6186 16.6832 56.6771 16.8035C56.7023 16.8481 56.7393 16.8847 56.7839 16.9092C56.8284 16.9338 56.8789 16.9453 56.9296 16.9425C57.0338 16.9363 57.1351 16.9053 57.2252 16.852L60.5647 15.0779L63.9036 16.852C63.9938 16.9052 64.0951 16.9362 64.1993 16.9425C64.25 16.9453 64.3004 16.9338 64.345 16.9092C64.3896 16.8847 64.4265 16.8481 64.4517 16.8035C64.51 16.6831 64.5256 16.5462 64.4961 16.4156L63.8534 12.6527L66.553 9.98864C66.724 9.82385 66.7871 9.67404 66.7423 9.53921ZM63.2024 11.9585L62.8378 12.3133L62.9272 12.8118L63.3736 15.4836L61.0094 14.2192L60.5706 13.9827V6.73557L61.7527 9.16015L61.9759 9.61195L62.4685 9.68705L65.1155 10.0785L63.2024 11.9585Z" fill="#FFA500"/>
</g>
<path d="M73.5085 14.728V12.968L78.7405 5.48H81.3485V12.776H82.7565V14.728H81.3485V17H79.1085V14.728H73.5085ZM79.2525 7.88L75.9725 12.776H79.2525V7.88ZM85.4306 17.112C85.0253 17.112 84.6893 16.9893 84.4226 16.744C84.1666 16.488 84.0386 16.1733 84.0386 15.8C84.0386 15.4267 84.1666 15.1173 84.4226 14.872C84.6893 14.616 85.0253 14.488 85.4306 14.488C85.8253 14.488 86.1506 14.616 86.4066 14.872C86.6626 15.1173 86.7906 15.4267 86.7906 15.8C86.7906 16.1733 86.6626 16.488 86.4066 16.744C86.1506 16.9893 85.8253 17.112 85.4306 17.112ZM90.2908 10.824C89.2242 10.2693 88.6908 9.41067 88.6908 8.248C88.6908 7.672 88.8348 7.14933 89.1228 6.68C89.4215 6.2 89.8642 5.82133 90.4508 5.544C91.0482 5.256 91.7735 5.112 92.6268 5.112C93.4802 5.112 94.2002 5.256 94.7868 5.544C95.3842 5.82133 95.8268 6.2 96.1148 6.68C96.4135 7.14933 96.5628 7.672 96.5628 8.248C96.5628 8.83467 96.4188 9.352 96.1308 9.8C95.8428 10.2373 95.4588 10.5787 94.9788 10.824C95.5655 11.08 96.0242 11.4533 96.3548 11.944C96.6855 12.4347 96.8508 13.016 96.8508 13.688C96.8508 14.4133 96.6642 15.048 96.2908 15.592C95.9282 16.1253 95.4268 16.536 94.7868 16.824C94.1468 17.112 93.4268 17.256 92.6268 17.256C91.8268 17.256 91.1068 17.112 90.4668 16.824C89.8375 16.536 89.3362 16.1253 88.9628 15.592C88.6002 15.048 88.4188 14.4133 88.4188 13.688C88.4188 13.016 88.5842 12.4347 88.9148 11.944C89.2455 11.4427 89.7042 11.0693 90.2908 10.824ZM94.3868 8.568C94.3868 8.04533 94.2268 7.64 93.9068 7.352C93.5975 7.064 93.1708 6.92 92.6268 6.92C92.0935 6.92 91.6668 7.064 91.3468 7.352C91.0375 7.64 90.8828 8.05067 90.8828 8.584C90.8828 9.064 91.0428 9.448 91.3628 9.736C91.6935 10.024 92.1148 10.168 92.6268 10.168C93.1388 10.168 93.5602 10.024 93.8908 9.736C94.2215 9.43733 94.3868 9.048 94.3868 8.568ZM92.6268 11.8C92.0188 11.8 91.5228 11.9547 91.1388 12.264C90.7655 12.5733 90.5788 13.016 90.5788 13.592C90.5788 14.1253 90.7602 14.5627 91.1228 14.904C91.4962 15.2347 91.9975 15.4 92.6268 15.4C93.2562 15.4 93.7522 15.2293 94.1148 14.888C94.4775 14.5467 94.6588 14.1147 94.6588 13.592C94.6588 13.0267 94.4722 12.5893 94.0988 12.28C93.7255 11.96 93.2348 11.8 92.6268 11.8Z" fill="#1A1818"/>
<path d="M30.3805 28H34.2181V49.988H30.3805V28Z" fill="#17313B"/>
<path d="M47.2124 42.8021C47.2552 43.316 47.1809 43.8326 46.9948 44.3163C46.8086 44.8 46.5151 45.2393 46.1344 45.6038C45.7537 45.9683 45.2949 46.2494 44.7897 46.4276C44.2845 46.6058 43.7449 46.6769 43.2082 46.636C40.8728 46.636 40.5387 44.5552 40.5387 43.4411V34.6523H36.7011V43.2781C36.6438 44.2173 36.7923 45.1576 37.1371 46.0385C37.4819 46.9195 38.0154 47.7216 38.7032 48.3934C39.3 48.9407 40.0077 49.3649 40.7826 49.6398C41.5575 49.9146 42.3831 50.0343 43.2082 49.9913C44.6629 50.0596 46.0915 49.6036 47.2124 48.7134V49.9913H51.0501V34.6523H47.2124V42.8021Z" fill="#17313B"/>
<path d="M58.1005 29.7578H54.2629V35.1627H51.4268V38.5605H54.2629V49.9884H58.1005V38.5605H60.9348V35.1627H58.1005V29.7578Z" fill="#17313B"/>
<path d="M72.4621 45.3546C71.5625 46.0504 70.4488 46.4435 69.2928 46.4731C68.6837 46.4842 68.0788 46.3749 67.5159 46.152C66.953 45.929 66.4442 45.5973 66.0213 45.1774C65.5985 44.7576 65.2707 44.2587 65.0584 43.712C64.8462 43.1653 64.754 42.5826 64.7878 42.0002C64.7571 41.426 64.8526 40.8521 65.0681 40.3154C65.2837 39.7788 65.6144 39.2915 66.0391 38.8849C66.4637 38.4784 66.9727 38.1617 67.5331 37.9553C68.0936 37.7489 68.6931 37.6575 69.2928 37.6869C69.8719 37.6644 70.45 37.7517 70.9939 37.9436C71.5378 38.1355 72.0367 38.4284 72.4621 38.8053L72.9629 39.2848L75.6324 36.8884L74.965 36.4089C73.4038 35.0743 71.3857 34.334 69.2928 34.3281C67.1246 34.3281 65.0452 35.1528 63.5121 36.6207C61.979 38.0886 61.1177 40.0795 61.1177 42.1554C61.1177 44.2313 61.979 46.2222 63.5121 47.6901C65.0452 49.158 67.1246 49.9827 69.2928 49.9827C71.3857 49.9768 73.4038 49.2365 74.965 47.9019L75.6324 47.4224L72.9629 44.8665L72.4621 45.3546Z" fill="#17313B"/>
<path d="M88.5851 36.3614C88.0466 35.832 87.3954 35.4197 86.6757 35.1525C85.956 34.8854 85.1848 34.7695 84.4143 34.8129C83.0681 34.7465 81.7491 35.1918 80.7442 36.0518V28H76.9038V49.988H80.7414V41.7853C80.7414 38.3789 83.2443 38.0694 84.2449 38.0694C86.5812 38.0694 86.4182 40.0825 86.4182 41.1663V49.8363H90.2558V41.3197C90.2513 39.304 89.7505 37.4451 88.5851 36.3614Z" fill="#17313B"/>
<path d="M69.1852 44.9248C70.6596 44.9248 71.8547 43.7805 71.8547 42.3689C71.8547 40.9573 70.6596 39.813 69.1852 39.813C67.7109 39.813 66.5157 40.9573 66.5157 42.3689C66.5157 43.7805 67.7109 44.9248 69.1852 44.9248Z" fill="#EF4335"/>
<path d="M25.7388 44.5741C24.2397 45.8938 22.2694 46.6133 20.2332 46.5847C16.0624 46.5847 13.0587 43.4912 13.0587 39.3158C13.0587 35.1403 16.0615 32.0468 20.3998 32.0468C22.4583 32.0624 24.4309 32.839 25.9054 34.2143L26.4062 34.6782L28.9091 32.3581L28.4047 31.8916C26.2608 29.897 23.3856 28.7864 20.3962 28.7982C14.0575 28.6438 9.385 33.2832 9.385 39.3158C9.33772 40.7051 9.58365 42.0893 10.1081 43.3855C10.6325 44.6818 11.4246 45.8634 12.4371 46.8597C13.4495 47.856 14.6614 48.6466 16.0004 49.184C17.3393 49.7215 18.7778 49.9948 20.2296 49.9877C21.7123 50.0085 23.1845 49.7455 24.5597 49.2143C25.9349 48.6831 27.1855 47.8943 28.2381 46.8942L28.7388 46.4304L26.236 44.1103L25.7388 44.5741Z" fill="#17313B"/>
<defs>
<clipPath id="clip0_2331_3049">
<rect width="12.3756" height="12" fill="white" transform="translate(0.878174 5)"/>
</clipPath>
<clipPath id="clip1_2331_3049">
<rect width="12.3756" height="12" fill="white" transform="translate(14.2538 5)"/>
</clipPath>
<clipPath id="clip2_2331_3049">
<rect width="12.3756" height="12" fill="white" transform="translate(27.6295 5)"/>
</clipPath>
<clipPath id="clip3_2331_3049">
<rect width="12.3756" height="12" fill="white" transform="translate(41.0051 5)"/>
</clipPath>
<clipPath id="clip4_2331_3049">
<rect width="12.3757" height="11.9431" fill="white" transform="translate(54.3807 5)"/>
</clipPath>
</defs>
</svg>
