<svg width="135" height="56" viewBox="0 0 135 56" fill="none" xmlns="http://www.w3.org/2000/svg">
<g clip-path="url(#clip0_2331_3083)">
<path d="M31.7493 9.53437C31.7097 9.41051 31.635 9.30117 31.5344 9.21993C31.4339 9.1387 31.312 9.08915 31.1839 9.07745L27.6122 8.75323L26.199 5.40458C26.1479 5.28552 26.0635 5.18418 25.9562 5.113C25.8489 5.04182 25.7234 5.00391 25.5951 5.00391C25.4668 5.00391 25.3413 5.04182 25.234 5.113C25.1268 5.18418 25.0424 5.28552 24.9912 5.40458L23.5769 8.75265L20.004 9.07686C19.876 9.08912 19.7543 9.13902 19.654 9.22043C19.5537 9.30183 19.4792 9.41117 19.4395 9.53495C19.3999 9.65874 19.3969 9.79155 19.431 9.91702C19.4651 10.0425 19.5347 10.1551 19.6313 10.241L22.3311 12.6362L21.5351 16.1863C21.5064 16.3133 21.5152 16.446 21.5604 16.568C21.6057 16.69 21.6853 16.7959 21.7894 16.8725C21.8935 16.9491 22.0176 16.9931 22.1462 16.999C22.2748 17.0049 22.4023 16.9725 22.5128 16.9057L25.5957 15.0431L28.6756 16.9057C28.7863 16.9719 28.9136 17.0039 29.042 16.9977C29.1703 16.9916 29.2941 16.9475 29.3981 16.8711C29.502 16.7946 29.5816 16.689 29.6269 16.5673C29.6723 16.4456 29.6815 16.3132 29.6534 16.1863L28.8539 12.6356L31.5572 10.241C31.654 10.1551 31.7239 10.0423 31.758 9.91655C31.7922 9.79084 31.7891 9.65777 31.7493 9.53379V9.53437Z" fill="#FFA500"/>
</g>
<g clip-path="url(#clip1_2331_3083)">
<path d="M45.125 9.53437C45.0854 9.41051 45.0107 9.30117 44.9102 9.21993C44.8097 9.1387 44.6878 9.08915 44.5596 9.07745L40.9879 8.75323L39.5748 5.40458C39.5236 5.28552 39.4392 5.18418 39.3319 5.113C39.2246 5.04182 39.0991 5.00391 38.9708 5.00391C38.8426 5.00391 38.7171 5.04182 38.6098 5.113C38.5025 5.18418 38.4181 5.28552 38.3669 5.40458L36.9526 8.75265L33.3797 9.07686C33.2517 9.08912 33.1301 9.13902 33.0298 9.22043C32.9295 9.30183 32.8549 9.41117 32.8153 9.53495C32.7756 9.65874 32.7727 9.79155 32.8068 9.91702C32.8408 10.0425 32.9105 10.1551 33.007 10.241L35.7068 12.6362L34.9108 16.1863C34.8821 16.3133 34.891 16.446 34.9362 16.568C34.9814 16.69 35.061 16.7959 35.1651 16.8725C35.2692 16.9491 35.3933 16.9931 35.5219 16.999C35.6505 17.0049 35.778 16.9725 35.8886 16.9057L38.9714 15.0431L42.0514 16.9057C42.162 16.9719 42.2893 17.0039 42.4177 16.9977C42.5461 16.9916 42.6699 16.9475 42.7738 16.8711C42.8777 16.7946 42.9573 16.689 43.0027 16.5673C43.048 16.4456 43.0572 16.3132 43.0291 16.1863L42.2297 12.6356L44.9329 10.241C45.0298 10.1551 45.0996 10.0423 45.1337 9.91655C45.1679 9.79084 45.1649 9.65777 45.125 9.53379V9.53437Z" fill="#FFA500"/>
</g>
<g clip-path="url(#clip2_2331_3083)">
<path d="M58.5007 9.53437C58.4611 9.41051 58.3864 9.30117 58.2859 9.21993C58.1854 9.1387 58.0635 9.08915 57.9354 9.07745L54.3636 8.75323L52.9505 5.40458C52.8993 5.28552 52.8149 5.18418 52.7076 5.113C52.6003 5.04182 52.4749 5.00391 52.3466 5.00391C52.2183 5.00391 52.0928 5.04182 51.9855 5.113C51.8782 5.18418 51.7938 5.28552 51.7427 5.40458L50.3283 8.75265L46.7555 9.07686C46.6275 9.08912 46.5058 9.13902 46.4055 9.22043C46.3052 9.30183 46.2306 9.41117 46.191 9.53495C46.1514 9.65874 46.1484 9.79155 46.1825 9.91702C46.2166 10.0425 46.2862 10.1551 46.3828 10.241L49.0826 12.6362L48.2865 16.1863C48.2579 16.3133 48.2667 16.446 48.3119 16.568C48.3571 16.69 48.4367 16.7959 48.5409 16.8725C48.645 16.9491 48.769 16.9931 48.8977 16.999C49.0263 17.0049 49.1538 16.9725 49.2643 16.9057L52.3471 15.0431L55.4271 16.9057C55.5377 16.9719 55.6651 17.0039 55.7934 16.9977C55.9218 16.9916 56.0456 16.9475 56.1495 16.8711C56.2535 16.7946 56.333 16.689 56.3784 16.5673C56.4238 16.4456 56.433 16.3132 56.4049 16.1863L55.6054 12.6356L58.3086 10.241C58.4055 10.1551 58.4753 10.0423 58.5095 9.91655C58.5436 9.79084 58.5406 9.65777 58.5007 9.53379V9.53437Z" fill="#FFA500"/>
</g>
<g clip-path="url(#clip3_2331_3083)">
<path d="M71.8765 9.53437C71.8369 9.41051 71.7622 9.30117 71.6616 9.21993C71.5611 9.1387 71.4392 9.08915 71.3111 9.07745L67.7394 8.75323L66.3262 5.40458C66.2751 5.28552 66.1906 5.18418 66.0834 5.113C65.9761 5.04182 65.8506 5.00391 65.7223 5.00391C65.594 5.00391 65.4685 5.04182 65.3612 5.113C65.254 5.18418 65.1696 5.28552 65.1184 5.40458L63.7041 8.75265L60.1312 9.07686C60.0032 9.08912 59.8815 9.13902 59.7812 9.22043C59.6809 9.30183 59.6064 9.41117 59.5667 9.53495C59.5271 9.65874 59.5241 9.79155 59.5582 9.91702C59.5923 10.0425 59.6619 10.1551 59.7585 10.241L62.4583 12.6362L61.6623 16.1863C61.6336 16.3133 61.6424 16.446 61.6876 16.568C61.7329 16.69 61.8125 16.7959 61.9166 16.8725C62.0207 16.9491 62.1448 16.9931 62.2734 16.999C62.402 17.0049 62.5295 16.9725 62.64 16.9057L65.7229 15.0431L68.8028 16.9057C68.9135 16.9719 69.0408 17.0039 69.1692 16.9977C69.2975 16.9916 69.4213 16.9475 69.5253 16.8711C69.6292 16.7946 69.7088 16.689 69.7541 16.5673C69.7995 16.4456 69.8087 16.3132 69.7806 16.1863L68.9811 12.6356L71.6844 10.241C71.7812 10.1551 71.8511 10.0423 71.8852 9.91655C71.9193 9.79084 71.9163 9.65777 71.8765 9.53379V9.53437Z" fill="#FFA500"/>
</g>
<g clip-path="url(#clip4_2331_3083)">
<path d="M85.2705 9.53921C85.2257 9.40123 85.0919 9.31469 84.8691 9.2796L81.1358 8.73141L79.4616 5.30625C79.3576 5.10046 79.2361 4.99756 79.097 4.99756C78.9579 4.99756 78.8364 5.10046 78.7324 5.30625L77.0606 8.732L73.3249 9.28019C73.1021 9.31528 72.9683 9.40182 72.9235 9.5398C72.8787 9.67779 72.9356 9.8274 73.0941 9.98864L75.8031 12.6527L75.1603 16.4156C75.1309 16.5463 75.1468 16.6832 75.2053 16.8035C75.2305 16.8481 75.2675 16.8847 75.3121 16.9092C75.3566 16.9338 75.4071 16.9453 75.4578 16.9425C75.562 16.9363 75.6633 16.9053 75.7534 16.852L79.0929 15.0779L82.4318 16.852C82.522 16.9052 82.6233 16.9362 82.7275 16.9425C82.7782 16.9453 82.8286 16.9338 82.8732 16.9092C82.9178 16.8847 82.9547 16.8481 82.9799 16.8035C83.0382 16.6831 83.0538 16.5462 83.0243 16.4156L82.3816 12.6527L85.0812 9.98864C85.2522 9.82385 85.3153 9.67404 85.2705 9.53921ZM81.7306 11.9585L81.366 12.3133L81.4554 12.8118L81.9018 15.4836L79.5376 14.2192L79.0988 13.9827V6.73557L80.2809 9.16015L80.5041 9.61195L80.9967 9.68705L83.6437 10.0785L81.7306 11.9585Z" fill="#FFA500"/>
</g>
<path d="M92.0364 14.728V12.968L97.2684 5.48H99.8764V12.776H101.284V14.728H99.8764V17H97.6364V14.728H92.0364ZM97.7804 7.88L94.5004 12.776H97.7804V7.88ZM103.959 17.112C103.553 17.112 103.217 16.9893 102.951 16.744C102.695 16.488 102.567 16.1733 102.567 15.8C102.567 15.4267 102.695 15.1173 102.951 14.872C103.217 14.616 103.553 14.488 103.959 14.488C104.353 14.488 104.679 14.616 104.935 14.872C105.191 15.1173 105.319 15.4267 105.319 15.8C105.319 16.1733 105.191 16.488 104.935 16.744C104.679 16.9893 104.353 17.112 103.959 17.112ZM109.459 13.72C109.544 14.1893 109.736 14.552 110.035 14.808C110.344 15.0533 110.755 15.176 111.267 15.176C111.928 15.176 112.408 14.904 112.707 14.36C113.005 13.8053 113.155 12.8773 113.155 11.576C112.909 11.9173 112.563 12.184 112.115 12.376C111.677 12.568 111.203 12.664 110.691 12.664C110.008 12.664 109.389 12.5253 108.835 12.248C108.291 11.96 107.859 11.5387 107.539 10.984C107.219 10.4187 107.059 9.736 107.059 8.936C107.059 7.752 107.411 6.81333 108.115 6.12C108.819 5.416 109.779 5.064 110.995 5.064C112.509 5.064 113.576 5.54933 114.195 6.52C114.824 7.49067 115.139 8.952 115.139 10.904C115.139 12.2907 115.016 13.4267 114.771 14.312C114.536 15.1973 114.125 15.8693 113.539 16.328C112.963 16.7867 112.173 17.016 111.171 17.016C110.381 17.016 109.709 16.8667 109.155 16.568C108.6 16.2587 108.173 15.8587 107.875 15.368C107.587 14.8667 107.421 14.3173 107.379 13.72H109.459ZM111.155 10.84C111.709 10.84 112.147 10.6693 112.467 10.328C112.787 9.98667 112.947 9.528 112.947 8.952C112.947 8.32267 112.776 7.83733 112.435 7.496C112.104 7.144 111.651 6.968 111.075 6.968C110.499 6.968 110.04 7.14933 109.699 7.512C109.368 7.864 109.203 8.33333 109.203 8.92C109.203 9.48533 109.363 9.94933 109.683 10.312C110.013 10.664 110.504 10.84 111.155 10.84Z" fill="#1A1818"/>
<path d="M8.9783 35.0332C8.9783 35.0332 7.86787 34.9196 7.86787 35.9122V40.3078H15.1993V41.6258C15.2035 41.7141 15.1891 41.8022 15.157 41.8846C15.1249 41.9669 15.0758 42.0416 15.013 42.1038C14.9501 42.1659 14.8749 42.2142 14.7922 42.2453C14.7095 42.2765 14.6212 42.29 14.5329 42.2848H7.86787V47.9992H15.8682C15.8682 47.9992 20.7119 47.2512 20.7572 42.2848V35.0357L8.9783 35.0332ZM20.534 28H6.08937C0.866731 29.2307 0.756348 33.5192 0.756348 33.5192V48H6.31261V34.8133C6.31589 34.4989 6.4285 34.1953 6.63111 33.9549C6.83372 33.7144 7.11371 33.5519 7.42304 33.4953H20.5348L20.534 28ZM39.6024 43.8557C39.2218 44.1102 38.9434 44.2964 38.7408 44.4158C38.0941 44.8161 37.4187 45.168 36.7201 45.4686C35.9465 45.8121 35.1137 46.0023 34.2677 46.0287C31.9642 46.1038 29.7225 45.2762 28.0203 43.7222C27.2077 42.9904 26.5632 42.091 26.1315 41.0862C25.6997 40.0813 25.4909 38.9949 25.5194 37.9016C25.4861 35.7251 26.2944 33.6198 27.7757 32.0249C28.4531 31.236 29.2953 30.6052 30.2429 30.1771C31.1905 29.749 32.2205 29.5339 33.2603 29.547C34.2292 29.5551 35.1908 29.7158 36.1097 30.0231C37.2918 30.3716 38.3757 30.9923 39.2746 31.8354L37.8256 33.4368C37.1663 32.817 36.3658 32.3675 35.4935 32.127C34.7432 31.9155 33.9664 31.8128 33.187 31.8222C32.4581 31.8145 31.7372 31.9738 31.0795 32.2879C30.4218 32.6021 29.8448 33.0627 29.3927 33.6345C28.3759 34.859 27.8348 36.4091 27.8688 38.0004C27.8472 38.7773 27.9911 39.55 28.2909 40.267C28.5907 40.9841 29.0396 41.6292 29.6077 42.1596C30.1995 42.714 30.8948 43.1463 31.6539 43.4317C32.413 43.717 33.2208 43.8499 34.0313 43.8227C34.8422 43.8004 35.6321 43.5603 36.3181 43.1275C36.9647 42.6332 37.2959 42.3968 37.3124 42.3795V38.8991H32.4777L33.173 36.7269H39.6024V43.8557ZM54.2184 39.615C54.2285 40.4255 54.0753 41.2298 53.7679 41.9799C53.4605 42.73 53.0052 43.4105 52.4292 43.9809C51.8655 44.5634 51.1909 45.0273 50.4452 45.3451C49.6994 45.6629 48.8977 45.8283 48.087 45.8315C47.2764 45.8348 46.4733 45.6757 45.7251 45.3639C44.9769 45.052 44.2986 44.5935 43.7303 44.0155C43.1397 43.4516 42.6728 42.7712 42.359 42.0174C42.0452 41.2635 41.8913 40.4528 41.9073 39.6364C41.888 37.9943 42.5125 36.41 43.6471 35.2227C44.1802 34.6229 44.8368 34.1456 45.5718 33.8234C46.3068 33.5012 47.1027 33.3418 47.9051 33.3561C48.7372 33.3278 49.5662 33.47 50.3414 33.7739C51.1165 34.0777 51.8213 34.5368 52.4126 35.123C53.0038 35.7091 53.469 36.4099 53.7795 37.1824C54.0901 37.9549 54.2394 38.7827 54.2184 39.615ZM51.9481 39.6496C51.9602 39.117 51.8653 38.5874 51.6691 38.0922C51.4728 37.597 51.1792 37.1461 50.8056 36.7664C50.4439 36.3795 50.0044 36.0736 49.516 35.8687C49.0275 35.6638 48.5013 35.5647 47.9718 35.5777C47.4597 35.573 46.9528 35.68 46.4863 35.8913C46.0198 36.1026 45.6049 36.413 45.2707 36.801C44.5513 37.5553 44.1532 38.5595 44.1603 39.6018C44.1524 40.122 44.2477 40.6385 44.4409 41.1215C44.6341 41.6046 44.9211 42.0445 45.2855 42.4158C45.6422 42.8001 46.0762 43.1046 46.5589 43.3093C47.0416 43.514 47.5621 43.6143 48.0863 43.6036C48.5934 43.6071 49.0957 43.5048 49.5609 43.3031C50.0262 43.1014 50.4442 42.8048 50.7883 42.4322C51.1607 42.0717 51.4556 41.6389 51.6551 41.1605C51.8545 40.682 51.9542 40.1679 51.9481 39.6496ZM68.6342 39.615C68.6443 40.4255 68.4911 41.2298 68.1837 41.9799C67.8763 42.73 67.421 43.4105 66.845 43.9809C66.2813 44.5634 65.6067 45.0273 64.861 45.3451C64.1152 45.6629 63.3135 45.8283 62.5028 45.8315C61.6922 45.8348 60.8891 45.6757 60.1409 45.3639C59.3927 45.052 58.7144 44.5935 58.1461 44.0155C57.5557 43.4515 57.0888 42.771 56.775 42.0172C56.4613 41.2635 56.3074 40.4527 56.3231 39.6364C56.3038 37.9943 56.9284 36.41 58.0629 35.2227C58.5961 34.623 59.2527 34.1456 59.9876 33.8235C60.7226 33.5013 61.5185 33.3418 62.3209 33.3561C63.153 33.3278 63.982 33.47 64.7572 33.7739C65.5323 34.0777 66.2371 34.5368 66.8284 35.123C67.4196 35.7091 67.8848 36.4099 68.1954 37.1824C68.5059 37.9549 68.6552 38.7827 68.6342 39.615ZM66.3639 39.6496C66.376 39.117 66.2811 38.5874 66.0849 38.0922C65.8886 37.597 65.595 37.1461 65.2214 36.7664C64.8597 36.3795 64.4202 36.0736 63.9318 35.8687C63.4434 35.6638 62.9171 35.5647 62.3876 35.5777C61.8755 35.573 61.3686 35.68 60.9021 35.8913C60.4356 36.1026 60.0208 36.413 59.6865 36.801C58.9671 37.5553 58.569 38.5595 58.5761 39.6018C58.5681 40.122 58.6636 40.6387 58.8569 41.1217C59.0502 41.6048 59.3375 42.0446 59.7022 42.4158C60.0587 42.8002 60.4926 43.1048 60.9754 43.3096C61.4581 43.5143 61.9787 43.6145 62.503 43.6036C63.0099 43.6071 63.512 43.5047 63.9771 43.303C64.4422 43.1013 64.8601 42.8047 65.2041 42.4322C65.5765 42.0717 65.8714 41.6389 66.0709 41.1605C66.2703 40.682 66.37 40.1679 66.3639 39.6496ZM81.9734 45.4875L79.8859 45.8105V43.7865L79.4386 44.2947C79.043 44.6662 78.5943 44.9768 78.1075 45.2165C77.3962 45.5453 76.6215 45.7141 75.838 45.7108C75.059 45.7237 74.2863 45.5697 73.5718 45.2593C72.8573 44.9488 72.2174 44.4891 71.6953 43.9109C70.589 42.7571 69.983 41.2132 70.0091 39.615C69.9782 37.9823 70.5773 36.4005 71.6821 35.198C72.1889 34.612 72.818 34.1442 73.525 33.8274C74.232 33.5106 74.9999 33.3525 75.7746 33.3643C76.603 33.3451 77.4261 33.5015 78.1898 33.8231C78.6544 34.0324 79.0759 34.3262 79.4329 34.6897C79.549 34.8421 79.6652 35.0118 79.7813 35.1642V29.8683L82.0005 29.5454L81.9734 45.4875ZM80.0178 39.7674C80.0316 39.2106 79.9315 38.6569 79.7235 38.1403C79.5156 37.6237 79.2042 37.155 78.8085 36.7631C78.4589 36.3756 78.0322 36.0655 77.5556 35.8527C77.0791 35.6399 76.5633 35.5291 76.0415 35.5275C75.5175 35.5072 74.9954 35.6015 74.5117 35.8038C74.0279 36.0061 73.5942 36.3116 73.2407 36.6989C72.5708 37.4494 72.2095 38.4255 72.2291 39.4313C72.1877 40.5229 72.5605 41.5899 73.2728 42.4182C73.6006 42.7975 74.0084 43.0993 74.467 43.3019C74.9256 43.5045 75.4234 43.6027 75.9245 43.5896C76.9679 43.5958 77.9748 43.2057 78.7417 42.4981C79.143 42.165 79.4656 41.7471 79.6862 41.2746C79.9068 40.802 80.02 40.2864 80.0178 39.7649V39.7674ZM93.6872 32.0792H87.4736V36.3051H92.2943V38.4774H87.4736V45.4711L85.0542 45.8269V29.8856H93.2094L93.6872 32.0792ZM98.6751 30.8395L97.1824 32.7201L95.7573 30.8362L97.2648 28.9696L98.6751 30.8395ZM98.2278 45.4875L96.0036 45.7932V33.9937L98.2278 33.6543V45.4851V45.4875ZM108.251 33.5356L107.208 35.9451C107.071 35.9245 106.934 35.9135 106.796 35.9122C106.579 35.9124 106.363 35.9292 106.149 35.9624C105.907 36.0077 105.673 36.0879 105.454 36.2005C104.915 36.4874 104.489 36.9477 104.245 37.507C103.86 38.2582 103.661 39.0906 103.664 39.9346V45.4678L101.445 45.8236V33.9937L103.499 33.6205V36.0811C103.763 35.656 104.046 35.2326 104.31 34.7919C104.665 34.3683 105.121 34.0411 105.636 33.8404C106.492 33.6285 107.372 33.5261 108.254 33.5356H108.251ZM124.787 45.4842L122.567 45.8072V37.7104C122.62 37.1237 122.443 36.5393 122.072 36.0811C121.874 35.9004 121.641 35.762 121.387 35.6743C121.133 35.5867 120.865 35.5516 120.597 35.5712C120.241 35.556 119.888 35.6381 119.576 35.8087C119.264 35.9792 119.004 36.2317 118.824 36.5391C118.563 36.9567 118.42 37.4378 118.412 37.9304V45.4637L116.188 45.8714V37.7607C116.226 37.178 116.056 36.6007 115.707 36.1321C115.542 35.9455 115.338 35.7983 115.108 35.7012C114.879 35.6041 114.631 35.5597 114.382 35.5712H114.167C113.819 35.5506 113.473 35.6335 113.172 35.8094C112.871 35.9853 112.629 36.2464 112.476 36.5597C112.191 37.1453 112.054 37.7925 112.079 38.4436V45.4637L109.773 45.8714V33.9937L111.843 33.6378V35.1477C112.036 34.8394 112.264 34.5547 112.523 34.2993C113.077 33.7603 113.821 33.4613 114.593 33.4673C115.277 33.4207 115.961 33.5681 116.565 33.8923C117.044 34.2575 117.425 34.7355 117.675 35.2837C118.005 34.715 118.483 34.2462 119.057 33.9271C119.632 33.608 120.283 33.4505 120.94 33.4714C121.511 33.4258 122.086 33.5187 122.614 33.7421C123.142 33.9655 123.609 34.3129 123.974 34.7548C124.58 35.6853 124.865 36.7878 124.787 37.895V45.4842ZM134.93 41.9034C134.945 42.4065 134.85 42.9069 134.653 43.3699C134.456 43.833 134.16 44.2478 133.787 44.5855C133.002 45.3015 131.966 45.6796 130.904 45.6383C130.074 45.6495 129.255 45.4384 128.534 45.0271C127.897 44.6935 127.351 44.21 126.943 43.6184L128.501 42.2271C128.594 42.3713 128.7 42.5075 128.816 42.634C129.082 42.9206 129.405 43.1486 129.765 43.3036C130.124 43.4586 130.512 43.5372 130.903 43.5344C131.385 43.561 131.859 43.4035 132.229 43.0937C132.395 42.9386 132.524 42.7482 132.608 42.5366C132.691 42.3249 132.726 42.0973 132.71 41.8704C132.71 41.2773 132.329 40.8701 131.567 40.6488C130.058 40.1908 129.246 39.9362 129.131 39.8852C128.547 39.6204 128.031 39.226 127.623 38.7319C127.244 38.1473 127.059 37.4587 127.093 36.7631C127.085 36.2824 127.181 35.8056 127.376 35.366C127.57 34.9264 127.858 34.5345 128.22 34.2177C128.947 33.5526 129.902 33.1937 130.887 33.216C131.643 33.2066 132.39 33.3876 133.058 33.7424C133.624 34.0065 134.114 34.4095 134.483 34.9138L133.158 36.3554C132.959 36.156 132.742 35.9744 132.512 35.8125C132.074 35.4729 131.542 35.2773 130.988 35.2524C130.584 35.2356 130.185 35.3419 129.844 35.5571C129.669 35.6855 129.53 35.8551 129.437 36.0508C129.344 36.2465 129.302 36.4621 129.313 36.6783C129.297 36.8837 129.336 37.0897 129.427 37.2748C129.517 37.4599 129.655 37.6175 129.827 37.731C130.436 38.0245 131.083 38.23 131.749 38.3414C132.621 38.514 133.423 38.9395 134.056 39.5647C134.355 39.8729 134.587 40.2399 134.738 40.6424C134.888 41.045 134.954 41.4743 134.93 41.9034Z" fill="#3A7AF3"/>
<defs>
<clipPath id="clip0_2331_3083">
<rect width="12.3756" height="12" fill="white" transform="translate(19.4062 5)"/>
</clipPath>
<clipPath id="clip1_2331_3083">
<rect width="12.3756" height="12" fill="white" transform="translate(32.782 5)"/>
</clipPath>
<clipPath id="clip2_2331_3083">
<rect width="12.3756" height="12" fill="white" transform="translate(46.1575 5)"/>
</clipPath>
<clipPath id="clip3_2331_3083">
<rect width="12.3756" height="12" fill="white" transform="translate(59.5332 5)"/>
</clipPath>
<clipPath id="clip4_2331_3083">
<rect width="12.3757" height="11.9431" fill="white" transform="translate(72.9089 5)"/>
</clipPath>
</defs>
</svg>
