<svg width="97" height="56" viewBox="0 0 97 56" fill="none" xmlns="http://www.w3.org/2000/svg">
<g clip-path="url(#clip0_2331_2965)">
<path d="M12.3432 9.53437C12.3035 9.41051 12.2288 9.30117 12.1283 9.21993C12.0278 9.1387 11.9059 9.08915 11.7778 9.07745L8.20605 8.75323L6.79289 5.40458C6.74173 5.28552 6.65732 5.18418 6.55004 5.113C6.44275 5.04182 6.31726 5.00391 6.18898 5.00391C6.06069 5.00391 5.9352 5.04182 5.82792 5.113C5.72063 5.18418 5.63623 5.28552 5.58506 5.40458L4.17075 8.75265L0.59788 9.07686C0.469877 9.08912 0.348218 9.13902 0.247911 9.22043C0.147603 9.30183 0.0730355 9.41117 0.0334056 9.53495C-0.00622431 9.65874 -0.00918264 9.79155 0.0248955 9.91702C0.0589737 10.0425 0.128598 10.1551 0.225179 10.241L2.92496 12.6362L2.12895 16.1863C2.10029 16.3133 2.10911 16.446 2.15432 16.568C2.19953 16.69 2.27913 16.7959 2.38326 16.8725C2.48739 16.9491 2.61145 16.9931 2.74006 16.999C2.86867 17.0049 2.99616 16.9725 3.10671 16.9057L6.18955 15.0431L9.26952 16.9057C9.38014 16.9719 9.50748 17.0039 9.63585 16.9977C9.76421 16.9916 9.88799 16.9475 9.99193 16.8711C10.0959 16.7946 10.1754 16.689 10.2208 16.5673C10.2662 16.4456 10.2754 16.3132 10.2473 16.1863L9.44782 12.6356L12.1511 10.241C12.2479 10.1551 12.3177 10.0423 12.3519 9.91655C12.386 9.79084 12.383 9.65777 12.3432 9.53379V9.53437Z" fill="#FFA500"/>
</g>
<g clip-path="url(#clip1_2331_2965)">
<path d="M25.7186 9.53437C25.679 9.41051 25.6043 9.30117 25.5038 9.21993C25.4033 9.1387 25.2814 9.08915 25.1533 9.07745L21.5815 8.75323L20.1684 5.40458C20.1172 5.28552 20.0328 5.18418 19.9255 5.113C19.8182 5.04182 19.6928 5.00391 19.5645 5.00391C19.4362 5.00391 19.3107 5.04182 19.2034 5.113C19.0961 5.18418 19.0117 5.28552 18.9606 5.40458L17.5462 8.75265L13.9734 9.07686C13.8454 9.08912 13.7237 9.13902 13.6234 9.22043C13.5231 9.30183 13.4485 9.41117 13.4089 9.53495C13.3693 9.65874 13.3663 9.79155 13.4004 9.91702C13.4345 10.0425 13.5041 10.1551 13.6007 10.241L16.3005 12.6362L15.5044 16.1863C15.4758 16.3133 15.4846 16.446 15.5298 16.568C15.575 16.69 15.6546 16.7959 15.7587 16.8725C15.8629 16.9491 15.9869 16.9931 16.1155 16.999C16.2442 17.0049 16.3716 16.9725 16.4822 16.9057L19.565 15.0431L22.645 16.9057C22.7556 16.9719 22.883 17.0039 23.0113 16.9977C23.1397 16.9916 23.2635 16.9475 23.3674 16.8711C23.4714 16.7946 23.5509 16.689 23.5963 16.5673C23.6417 16.4456 23.6509 16.3132 23.6228 16.1863L22.8233 12.6356L25.5265 10.241C25.6234 10.1551 25.6932 10.0423 25.7274 9.91655C25.7615 9.79084 25.7585 9.65777 25.7186 9.53379V9.53437Z" fill="#FFA500"/>
</g>
<g clip-path="url(#clip2_2331_2965)">
<path d="M39.0946 9.53437C39.055 9.41051 38.9803 9.30117 38.8798 9.21993C38.7793 9.1387 38.6574 9.08915 38.5292 9.07745L34.9575 8.75323L33.5444 5.40458C33.4932 5.28552 33.4088 5.18418 33.3015 5.113C33.1942 5.04182 33.0687 5.00391 32.9404 5.00391C32.8122 5.00391 32.6867 5.04182 32.5794 5.113C32.4721 5.18418 32.3877 5.28552 32.3365 5.40458L30.9222 8.75265L27.3493 9.07686C27.2213 9.08912 27.0997 9.13902 26.9994 9.22043C26.8991 9.30183 26.8245 9.41117 26.7849 9.53495C26.7452 9.65874 26.7423 9.79155 26.7764 9.91702C26.8104 10.0425 26.8801 10.1551 26.9766 10.241L29.6764 12.6362L28.8804 16.1863C28.8518 16.3133 28.8606 16.446 28.9058 16.568C28.951 16.69 29.0306 16.7959 29.1347 16.8725C29.2389 16.9491 29.3629 16.9931 29.4915 16.999C29.6201 17.0049 29.7476 16.9725 29.8582 16.9057L32.941 15.0431L36.021 16.9057C36.1316 16.9719 36.2589 17.0039 36.3873 16.9977C36.5157 16.9916 36.6395 16.9475 36.7434 16.8711C36.8473 16.7946 36.9269 16.689 36.9723 16.5673C37.0176 16.4456 37.0268 16.3132 36.9987 16.1863L36.1993 12.6356L38.9025 10.241C38.9994 10.1551 39.0692 10.0423 39.1033 9.91655C39.1375 9.79084 39.1345 9.65777 39.0946 9.53379V9.53437Z" fill="#FFA500"/>
</g>
<g clip-path="url(#clip3_2331_2965)">
<path d="M52.4702 9.53437C52.4306 9.41051 52.3559 9.30117 52.2554 9.21993C52.1549 9.1387 52.033 9.08915 51.9049 9.07745L48.3331 8.75323L46.92 5.40458C46.8688 5.28552 46.7844 5.18418 46.6771 5.113C46.5698 5.04182 46.4443 5.00391 46.3161 5.00391C46.1878 5.00391 46.0623 5.04182 45.955 5.113C45.8477 5.18418 45.7633 5.28552 45.7121 5.40458L44.2978 8.75265L40.725 9.07686C40.597 9.08912 40.4753 9.13902 40.375 9.22043C40.2747 9.30183 40.2001 9.41117 40.1605 9.53495C40.1209 9.65874 40.1179 9.79155 40.152 9.91702C40.186 10.0425 40.2557 10.1551 40.3523 10.241L43.052 12.6362L42.256 16.1863C42.2274 16.3133 42.2362 16.446 42.2814 16.568C42.3266 16.69 42.4062 16.7959 42.5103 16.8725C42.6145 16.9491 42.7385 16.9931 42.8671 16.999C42.9957 17.0049 43.1232 16.9725 43.2338 16.9057L46.3166 15.0431L49.3966 16.9057C49.5072 16.9719 49.6346 17.0039 49.7629 16.9977C49.8913 16.9916 50.0151 16.9475 50.119 16.8711C50.223 16.7946 50.3025 16.689 50.3479 16.5673C50.3933 16.4456 50.4025 16.3132 50.3744 16.1863L49.5749 12.6356L52.2781 10.241C52.375 10.1551 52.4448 10.0423 52.479 9.91655C52.5131 9.79084 52.5101 9.65777 52.4702 9.53379V9.53437Z" fill="#FFA500"/>
</g>
<g clip-path="url(#clip4_2331_2965)">
<path d="M65.8641 9.53921C65.8193 9.40123 65.6855 9.31469 65.4627 9.2796L61.7294 8.73141L60.0553 5.30625C59.9512 5.10046 59.8297 4.99756 59.6906 4.99756C59.5516 4.99756 59.43 5.10046 59.326 5.30625L57.6542 8.732L53.9186 9.28019C53.6957 9.31528 53.5619 9.40182 53.5171 9.5398C53.4723 9.67779 53.5292 9.8274 53.6877 9.98864L56.3967 12.6527L55.754 16.4156C55.7245 16.5463 55.7404 16.6832 55.799 16.8035C55.8241 16.8481 55.8611 16.8847 55.9057 16.9092C55.9503 16.9338 56.0007 16.9453 56.0514 16.9425C56.1556 16.9363 56.2569 16.9053 56.3471 16.852L59.6865 15.0779L63.0254 16.852C63.1156 16.9052 63.2169 16.9362 63.3211 16.9425C63.3718 16.9453 63.4222 16.9338 63.4668 16.9092C63.5114 16.8847 63.5484 16.8481 63.5735 16.8035C63.6318 16.6831 63.6475 16.5462 63.618 16.4156L62.9752 12.6527L65.6748 9.98864C65.8458 9.82385 65.9089 9.67404 65.8641 9.53921ZM62.3242 11.9585L61.9596 12.3133L62.049 12.8118L62.4954 15.4836L60.1312 14.2192L59.6924 13.9827V6.73557L60.8745 9.16015L61.0977 9.61195L61.5903 9.68705L64.2374 10.0785L62.3242 11.9585Z" fill="#FFA500"/>
</g>
<path d="M72.6303 14.728V12.968L77.8623 5.48H80.4703V12.776H81.8783V14.728H80.4703V17H78.2303V14.728H72.6303ZM78.3743 7.88L75.0943 12.776H78.3743V7.88ZM84.5524 17.112C84.1471 17.112 83.8111 16.9893 83.5444 16.744C83.2884 16.488 83.1604 16.1733 83.1604 15.8C83.1604 15.4267 83.2884 15.1173 83.5444 14.872C83.8111 14.616 84.1471 14.488 84.5524 14.488C84.9471 14.488 85.2724 14.616 85.5284 14.872C85.7844 15.1173 85.9124 15.4267 85.9124 15.8C85.9124 16.1733 85.7844 16.488 85.5284 16.744C85.2724 16.9893 84.9471 17.112 84.5524 17.112ZM87.4927 8.408C87.546 7.34133 87.9193 6.52 88.6127 5.944C89.3167 5.35733 90.2393 5.064 91.3807 5.064C92.1593 5.064 92.826 5.20267 93.3807 5.48C93.9353 5.74667 94.3513 6.11467 94.6287 6.584C94.9167 7.04267 95.0607 7.56533 95.0607 8.152C95.0607 8.824 94.8847 9.39467 94.5327 9.864C94.1913 10.3227 93.7807 10.632 93.3007 10.792V10.856C93.9193 11.048 94.3993 11.3893 94.7407 11.88C95.0927 12.3707 95.2687 13 95.2687 13.768C95.2687 14.408 95.1193 14.9787 94.8207 15.48C94.5327 15.9813 94.1007 16.376 93.5247 16.664C92.9593 16.9413 92.2767 17.08 91.4767 17.08C90.2713 17.08 89.29 16.776 88.5327 16.168C87.7753 15.56 87.3753 14.664 87.3327 13.48H89.5087C89.53 14.0027 89.706 14.424 90.0367 14.744C90.378 15.0533 90.842 15.208 91.4287 15.208C91.9727 15.208 92.3887 15.0587 92.6767 14.76C92.9753 14.4507 93.1247 14.056 93.1247 13.576C93.1247 12.936 92.922 12.4773 92.5167 12.2C92.1113 11.9227 91.482 11.784 90.6287 11.784H90.1647V9.944H90.6287C92.1433 9.944 92.9007 9.43733 92.9007 8.424C92.9007 7.96533 92.762 7.608 92.4847 7.352C92.218 7.096 91.8287 6.968 91.3167 6.968C90.8153 6.968 90.426 7.10667 90.1487 7.384C89.882 7.65067 89.7273 7.992 89.6847 8.408H87.4927Z" fill="#1A1818"/>
<path d="M42.0738 42.7532C42.0781 44.108 41.6803 45.4336 40.9308 46.5622C40.1812 47.6907 39.1136 48.5715 37.8632 49.0929C36.6128 49.6144 35.2357 49.7531 33.9064 49.4914C32.5771 49.2297 31.3554 48.5795 30.3958 47.623C29.4363 46.6666 28.7822 45.4469 28.5163 44.1184C28.2504 42.7899 28.3847 41.4125 28.9022 40.1604C29.4196 38.9083 30.297 37.8379 31.4232 37.0847C32.5493 36.3316 33.8737 35.9296 35.2285 35.9296C36.1295 35.9153 37.0243 36.0819 37.8598 36.4194C38.6954 36.757 39.4547 37.2588 40.0929 37.895C40.7312 38.5312 41.2353 39.2889 41.5756 40.1234C41.9158 40.9579 42.0852 41.8521 42.0738 42.7532ZM39.077 42.7532C39.1152 42.2244 39.0441 41.6934 38.868 41.1934C38.6919 40.6933 38.4146 40.2349 38.0535 39.8468C37.6924 39.4586 37.2552 39.149 36.7692 38.9374C36.2831 38.7257 35.7586 38.6164 35.2285 38.6164C34.6983 38.6164 34.1739 38.7257 33.6878 38.9374C33.2018 39.149 32.7645 39.4586 32.4034 39.8468C32.0423 40.2349 31.7651 40.6933 31.589 41.1934C31.4129 41.6934 31.3418 42.2244 31.38 42.7532C31.3418 43.2819 31.4129 43.8129 31.589 44.313C31.7651 44.813 32.0423 45.2714 32.4034 45.6596C32.7645 46.0477 33.2018 46.3573 33.6878 46.569C34.1739 46.7807 34.6983 46.8899 35.2285 46.8899C35.7586 46.8899 36.2831 46.7807 36.7692 46.569C37.2552 46.3573 37.6924 46.0477 38.0535 45.6596C38.4146 45.2714 38.6919 44.813 38.868 44.313C39.0441 43.8129 39.1152 43.2819 39.077 42.7532Z" fill="#EA4335"/>
<path d="M57.2898 42.7532C57.2941 44.108 56.8963 45.4336 56.1467 46.5622C55.3972 47.6907 54.3296 48.5715 53.0791 49.0929C51.8287 49.6144 50.4516 49.7531 49.1224 49.4914C47.7931 49.2297 46.5713 48.5795 45.6118 47.623C44.6523 46.6666 43.9982 45.4469 43.7323 44.1184C43.4664 42.7899 43.6006 41.4125 44.1181 40.1604C44.6356 38.9083 45.5129 37.8379 46.6391 37.0847C47.7653 36.3316 49.0896 35.9296 50.4444 35.9296C51.3455 35.9153 52.2402 36.0819 53.0758 36.4194C53.9113 36.757 54.6707 37.2588 55.3089 37.895C55.9471 38.5312 56.4513 39.2889 56.7915 40.1234C57.1318 40.9579 57.3012 41.8521 57.2898 42.7532ZM54.2929 42.7532C54.3312 42.2244 54.26 41.6934 54.0839 41.1934C53.9078 40.6933 53.6306 40.2349 53.2695 39.8468C52.9084 39.4586 52.4711 39.149 51.9851 38.9374C51.499 38.7257 50.9746 38.6164 50.4444 38.6164C49.9143 38.6164 49.3898 38.7257 48.9038 38.9374C48.4177 39.149 47.9805 39.4586 47.6194 39.8468C47.2583 40.2349 46.981 40.6933 46.8049 41.1934C46.6288 41.6934 46.5577 42.2244 46.5959 42.7532C46.5577 43.2819 46.6288 43.8129 46.8049 44.313C46.981 44.813 47.2583 45.2714 47.6194 45.6596C47.9805 46.0477 48.4177 46.3573 48.9038 46.569C49.3898 46.7807 49.9143 46.8899 50.4444 46.8899C50.9746 46.8899 51.499 46.7807 51.9851 46.569C52.4711 46.3573 52.9084 46.0477 53.2695 45.6596C53.6306 45.2714 53.9078 44.813 54.0839 44.313C54.26 43.8129 54.3312 43.2819 54.2929 42.7532Z" fill="#FBBC05"/>
<path d="M71.8756 36.6526V48.9026C71.8756 53.9417 68.9038 55.9998 65.39 55.9998C64.0961 56.0079 62.8293 55.6295 61.7518 54.9132C60.6743 54.1968 59.8352 53.1751 59.3419 51.9789L61.9506 50.8913C62.2181 51.5905 62.6878 52.1942 63.2997 52.6254C63.9117 53.0566 64.6382 53.2958 65.3866 53.3125C67.6355 53.3125 69.0293 51.9254 69.0293 49.3134V48.3337H68.9247C68.4746 48.838 67.9199 49.2379 67.2993 49.5057C66.6786 49.7734 66.0071 49.9025 65.3314 49.884C63.5744 49.8061 61.9152 49.0534 60.6994 47.7826C59.4836 46.5117 58.8051 44.8208 58.8051 43.0621C58.8051 41.3033 59.4836 39.6124 60.6994 38.3416C61.9152 37.0707 63.5744 36.318 65.3314 36.2401C66.0045 36.224 66.6732 36.3518 67.2929 36.615C67.9126 36.8782 68.469 37.2706 68.9247 37.7661H69.0293V36.6584H71.8739L71.8756 36.6526ZM69.2418 43.0888C69.2418 40.686 67.6388 38.9291 65.5991 38.9291C65.0749 38.9477 64.5597 39.0708 64.0835 39.2909C63.6074 39.5111 63.18 39.824 62.8262 40.2113C62.4725 40.5987 62.1995 41.0526 62.0233 41.5467C61.8471 42.0408 61.7712 42.5651 61.8 43.0888C61.7739 43.6095 61.8521 44.1301 62.0299 44.6202C62.2077 45.1103 62.4815 45.5599 62.8354 45.9428C63.1892 46.3256 63.616 46.6339 64.0906 46.8497C64.5651 47.0655 65.078 47.1843 65.5991 47.1992C67.638 47.2001 69.2427 45.4666 69.2427 43.088L69.2418 43.0888Z" fill="#4285F4"/>
<path d="M76.7616 28.7808V48.7764H73.8392V28.7808H76.7616Z" fill="#34A853"/>
<path d="M88.515 45.0002L90.8409 46.5505C90.2171 47.4862 89.3708 48.2524 88.3778 48.7803C87.3848 49.3082 86.2763 49.5812 85.1518 49.575C84.2545 49.588 83.3638 49.42 82.5329 49.0811C81.702 48.7421 80.948 48.2391 80.3159 47.6022C79.6838 46.9652 79.1866 46.2074 78.854 45.3739C78.5213 44.5404 78.3602 43.6485 78.3801 42.7513C78.3801 38.6937 81.2999 35.9277 84.8163 35.9277C88.3569 35.9277 90.0871 38.7455 90.6552 40.269L90.9655 41.0446L81.8462 44.8229C82.1272 45.4589 82.5926 45.996 83.1822 46.3646C83.7719 46.7332 84.4586 46.9163 85.1535 46.8902C85.8296 46.8941 86.4952 46.7219 87.0846 46.3905C87.674 46.0591 88.167 45.58 88.515 45.0002ZM81.3551 42.5455L87.4525 40.0139C87.2189 39.5511 86.8543 39.1673 86.4041 38.9102C85.954 38.6532 85.4381 38.5342 84.9209 38.5682C84.4241 38.5907 83.9367 38.712 83.4874 38.9251C83.038 39.1381 82.6356 39.4385 82.3036 39.8088C81.9716 40.1791 81.7168 40.6118 81.5539 41.0817C81.3911 41.5516 81.3235 42.0492 81.3551 42.5455Z" fill="#EA4335"/>
<path d="M16.6549 40.596V37.7012H26.41C26.5115 38.2781 26.56 38.8632 26.5548 39.4489C26.6357 41.9475 25.7347 44.3784 24.0449 46.2207C23.0948 47.2107 21.9453 47.9876 20.6725 48.5001C19.3997 49.0125 18.0325 49.2488 16.6616 49.1932C13.8365 49.1948 11.1245 48.0837 9.11271 46.1004C7.10091 44.1171 5.95119 41.4212 5.91248 38.5964C5.95163 35.7719 7.10154 33.0765 9.11329 31.0935C11.1251 29.1106 13.8368 27.9996 16.6616 28.0012C18.0051 27.9802 19.3394 28.2277 20.5861 28.7291C21.8328 29.2305 22.9669 29.9757 23.9219 30.9211L21.8796 32.9625C20.4787 31.6116 18.6008 30.8689 16.6549 30.896C15.6487 30.896 14.6525 31.0959 13.7241 31.4839C12.7958 31.8719 11.9537 32.4405 11.2468 33.1565C10.5399 33.8725 9.98218 34.7218 9.60605 35.655C9.22993 36.5883 9.04286 37.5869 9.05571 38.5931C9.04286 39.5992 9.22993 40.5978 9.60605 41.5311C9.98218 42.4643 10.5399 43.3136 11.2468 44.0296C11.9537 44.7456 12.7958 45.3142 13.7241 45.7022C14.6525 46.0903 15.6487 46.2901 16.6549 46.2901C17.6458 46.3315 18.6344 46.1646 19.5567 45.7999C20.479 45.4353 21.3146 44.8812 22.0093 44.1734C22.918 43.1875 23.4702 41.9257 23.578 40.5893L16.6549 40.596Z" fill="#4285F4"/>
<defs>
<clipPath id="clip0_2331_2965">
<rect width="12.3756" height="12" fill="white" transform="translate(0 5)"/>
</clipPath>
<clipPath id="clip1_2331_2965">
<rect width="12.3756" height="12" fill="white" transform="translate(13.3756 5)"/>
</clipPath>
<clipPath id="clip2_2331_2965">
<rect width="12.3756" height="12" fill="white" transform="translate(26.7513 5)"/>
</clipPath>
<clipPath id="clip3_2331_2965">
<rect width="12.3756" height="12" fill="white" transform="translate(40.127 5)"/>
</clipPath>
<clipPath id="clip4_2331_2965">
<rect width="12.3757" height="11.9431" fill="white" transform="translate(53.5026 5)"/>
</clipPath>
</defs>
</svg>
