<svg xmlns="http://www.w3.org/2000/svg" width="87.5" height="13.642" viewBox="0 0 87.5 13.642"><g transform="translate(-685.527 -3752.22)"><path d="M6.749.292a.422.422,0,0,1,.8,0l1.4,4.3a.422.422,0,0,0,.4.292h4.526a.422.422,0,0,1,.248.763l-3.662,2.66a.422.422,0,0,0-.153.472l1.4,4.3a.422.422,0,0,1-.649.472L7.4,10.9a.422.422,0,0,0-.5,0L3.24,13.559a.422.422,0,0,1-.649-.472l1.4-4.3a.422.422,0,0,0-.153-.472L.175,5.651a.422.422,0,0,1,.248-.763H4.949a.422.422,0,0,0,.4-.292Z" transform="translate(758.727 3752.22)" fill="#e1e1e1"/><path d="M6.749.292a.422.422,0,0,1,.8,0l1.4,4.3a.422.422,0,0,0,.4.292l0,7.432L9.187,12.2,7.4,10.9a.422.422,0,0,0-.5,0L3.24,13.559a.422.422,0,0,1-.649-.472l1.4-4.3a.422.422,0,0,0-.153-.472L.175,5.651a.422.422,0,0,1,.248-.763H4.949a.422.422,0,0,0,.4-.292Z" transform="translate(758.727 3752.22)" fill="#ffbd27"/><path d="M6.749.292a.422.422,0,0,1,.8,0l1.4,4.3a.422.422,0,0,0,.4.292h4.526a.422.422,0,0,1,.248.763l-3.662,2.66a.422.422,0,0,0-.153.472l1.4,4.3a.422.422,0,0,1-.649.472L7.4,10.9a.422.422,0,0,0-.5,0L3.24,13.559a.422.422,0,0,1-.649-.472l1.4-4.3a.422.422,0,0,0-.153-.472L.175,5.651a.422.422,0,0,1,.248-.763H4.949a.422.422,0,0,0,.4-.292Z" transform="translate(740.427 3752.22)" fill="#ffbd27"/><path d="M6.749.292a.422.422,0,0,1,.8,0l1.4,4.3a.422.422,0,0,0,.4.292h4.526a.422.422,0,0,1,.248.763l-3.662,2.66a.422.422,0,0,0-.153.472l1.4,4.3a.422.422,0,0,1-.649.472L7.4,10.9a.422.422,0,0,0-.5,0L3.24,13.559a.422.422,0,0,1-.649-.472l1.4-4.3a.422.422,0,0,0-.153-.472L.175,5.651a.422.422,0,0,1,.248-.763H4.949a.422.422,0,0,0,.4-.292Z" transform="translate(722.127 3752.22)" fill="#ffbd27"/><path d="M6.749.292a.422.422,0,0,1,.8,0l1.4,4.3a.422.422,0,0,0,.4.292h4.526a.422.422,0,0,1,.248.763l-3.662,2.66a.422.422,0,0,0-.153.472l1.4,4.3a.422.422,0,0,1-.649.472L7.4,10.9a.422.422,0,0,0-.5,0L3.24,13.559a.422.422,0,0,1-.649-.472l1.4-4.3a.422.422,0,0,0-.153-.472L.175,5.651a.422.422,0,0,1,.248-.763H4.949a.422.422,0,0,0,.4-.292Z" transform="translate(703.827 3752.22)" fill="#ffbd27"/><path d="M6.749.292a.422.422,0,0,1,.8,0l1.4,4.3a.422.422,0,0,0,.4.292h4.526a.422.422,0,0,1,.248.763l-3.662,2.66a.422.422,0,0,0-.153.472l1.4,4.3a.422.422,0,0,1-.649.472L7.4,10.9a.422.422,0,0,0-.5,0L3.24,13.559a.422.422,0,0,1-.649-.472l1.4-4.3a.422.422,0,0,0-.153-.472L.175,5.651a.422.422,0,0,1,.248-.763H4.949a.422.422,0,0,0,.4-.292Z" transform="translate(685.527 3752.22)" fill="#ffbd27"/></g></svg>