<?xml version="1.0" encoding="utf-8"?>
<svg xmlns="http://www.w3.org/2000/svg" width="23.096" height="16.6" viewBox="0 0 23.096 16.6">
  <g id="Group_13553" data-name="Group 13553" transform="translate(-10.104 -13.713)">
    <path id="Fill_1" data-name="Fill 1" d="M22.613,2.592A2.932,2.932,0,0,0,20.571.5C18.77,0,11.548,0,11.548,0S4.326,0,2.525.5a2.932,2.932,0,0,0-2.042,2.1A31.673,31.673,0,0,0,0,8.3a31.674,31.674,0,0,0,.483,5.708,2.932,2.932,0,0,0,2.042,2.1c1.8.5,9.023.5,9.023.5s7.222,0,9.023-.5a2.932,2.932,0,0,0,2.042-2.1A31.666,31.666,0,0,0,23.1,8.3a31.665,31.665,0,0,0-.483-5.708" transform="translate(10.104 13.713)" fill="#fff"/>
    <path id="Fill_2" data-name="Fill 2" d="M0,7.217V0L5.774,3.609Z" transform="translate(19.487 18.765)" fill="#4c4c4c"/>
  </g>
</svg>
