<svg width="200" height="44" viewBox="0 0 200 44" fill="none" xmlns="http://www.w3.org/2000/svg">
<g id="BBC.svg">
<g id="path1314-6" style="mix-blend-mode:luminosity">
<path d="M36 4V40.44H72.44V4H36ZM46.2146 12.1739H53.9705C55.8381 12.0612 57.6943 12.5326 59.2818 13.5227C59.895 13.9467 60.3898 14.5202 60.7193 15.189C61.0488 15.8578 61.202 16.5996 61.1645 17.3442C61.1845 18.2249 60.9502 19.0928 60.4896 19.8438C59.9942 20.5753 59.3005 21.1503 58.4899 21.5016C59.5937 21.8175 60.5681 22.477 61.2715 23.3843C61.9423 24.2726 62.2894 25.3634 62.2554 26.4759C62.2844 27.5832 61.9489 28.6694 61.3005 29.5675C60.6219 30.4774 59.6949 31.1718 58.6309 31.5672C57.2929 32.0655 55.8718 32.3031 54.4445 32.2671H46.2146V12.1739ZM50.401 15.4334V20.4327H53.5766C54.4533 20.4938 55.3248 20.2563 56.0492 19.7588C56.3362 19.5266 56.5646 19.2301 56.7159 18.8933C56.8671 18.5565 56.9371 18.1889 56.9201 17.8201C56.9201 16.2277 55.8056 15.4314 53.5766 15.4314L50.401 15.4334ZM50.401 23.5823V29.0066H54.0545C55.0645 29.0676 56.0703 28.8331 56.9491 28.3317C57.2753 28.1133 57.5397 27.8146 57.717 27.4643C57.8942 27.1141 57.9782 26.7241 57.961 26.3319C57.961 24.4962 56.6778 23.5783 54.1115 23.5783L50.401 23.5823ZM127.099 4V40.44H163.539V4H127.099ZM146.816 11.7519C147.867 11.7453 148.914 11.8679 149.935 12.1169C150.894 12.3293 151.821 12.6697 152.689 13.1287V17.1192C151.924 16.596 151.08 16.1977 150.189 15.9394C149.27 15.6553 148.314 15.513 147.352 15.5174C146.134 15.483 144.926 15.7535 143.839 16.3043C142.888 16.8243 142.115 17.6173 141.62 18.581C141.083 19.7122 140.823 20.9543 140.861 22.2055C140.826 23.4628 141.076 24.7117 141.592 25.859C142.066 26.8187 142.821 27.6121 143.755 28.1347C144.822 28.6856 146.011 28.9564 147.212 28.9216C149.234 28.9328 151.215 28.357 152.916 27.2638V31.1703C152.017 31.669 151.052 32.0393 150.049 32.2701C148.929 32.5555 147.777 32.6973 146.621 32.6921C145.158 32.7143 143.702 32.4774 142.321 31.9922C141.106 31.5426 140.003 30.8328 139.09 29.9124C138.186 28.9755 137.496 27.8539 137.067 26.6249C136.582 25.2056 136.345 23.7133 136.367 22.2135C136.345 20.7477 136.593 19.2903 137.098 17.9141C137.549 16.6718 138.266 15.5429 139.199 14.6062C140.131 13.6695 141.257 12.9476 142.497 12.4908C143.884 11.9875 145.35 11.7398 146.825 11.7599L146.816 11.7519ZM81.5497 4V40.44H117.989V4H81.5497ZM91.7643 12.1739H99.5203C101.387 12.0614 103.243 12.5328 104.831 13.5227C105.444 13.9467 105.939 14.5202 106.268 15.189C106.598 15.8578 106.751 16.5996 106.713 17.3442C106.733 18.2249 106.499 19.0928 106.038 19.8438C105.543 20.5753 104.849 21.1503 104.039 21.5016C105.142 21.8175 106.117 22.477 106.82 23.3843C107.491 24.2726 107.838 25.3634 107.804 26.4759C107.833 27.5832 107.498 28.6694 106.849 29.5675C106.171 30.4774 105.244 31.1718 104.18 31.5672C102.842 32.0655 101.421 32.3031 99.9932 32.2671H91.7643V12.1739ZM95.9508 15.4334V20.4327H99.1263C100.003 20.4938 100.875 20.2563 101.599 19.7588C101.886 19.5266 102.114 19.2301 102.266 18.8933C102.417 18.5565 102.487 18.1889 102.47 17.8201C102.47 16.2277 101.355 15.4314 99.1263 15.4314L95.9508 15.4334ZM95.9508 23.5823V29.0066H99.6043C100.614 29.0676 101.62 28.8331 102.499 28.3317C102.825 28.1133 103.089 27.8146 103.267 27.4643C103.444 27.1141 103.528 26.7241 103.511 26.3319C103.511 24.4962 102.228 23.5783 99.6613 23.5783L95.9508 23.5823Z" fill="black"/>
</g>
</g>
</svg>
