<svg width="200" height="44" viewBox="0 0 200 44" fill="none" xmlns="http://www.w3.org/2000/svg">
<g id="Bloomberg.svg">
<g id="New_Bloomberg_Logo" style="mix-blend-mode:luminosity">
<path id="Path 253537" d="M20 6.99999H31.687C33.5146 6.91606 35.3188 7.43794 36.8194 8.48458C37.5062 9.0548 38.053 9.77511 38.4176 10.59C38.7822 11.4049 38.9548 12.2926 38.9221 13.1847C39.0022 14.1436 38.7758 15.1032 38.2757 15.9253C37.7755 16.7474 37.0273 17.3895 36.1389 17.7593V17.8829C37.3197 18.2768 38.3395 19.0458 39.0428 20.0729C39.7461 21.0999 40.0945 22.3287 40.0349 23.5721C40.0832 24.6671 39.8732 25.7582 39.422 26.7571C38.9708 27.7561 38.2911 28.6349 37.4376 29.3226C35.8254 30.3735 33.9158 30.8726 31.9956 30.7449H20V6.99999ZM30.5129 16.2756C30.7992 16.3056 31.0886 16.2723 31.3606 16.1782C31.6326 16.084 31.8806 15.9312 32.087 15.7306C32.2935 15.53 32.4533 15.2865 32.5553 15.0173C32.6572 14.7482 32.6988 14.4599 32.6771 14.1728C32.6901 13.8852 32.6398 13.5981 32.5298 13.332C32.4198 13.0658 32.2528 12.8271 32.0405 12.6325C31.8282 12.4379 31.5758 12.2923 31.3011 12.2059C31.0264 12.1195 30.7361 12.0944 30.4506 12.1323H26.431V16.2143H30.512L30.5129 16.2756ZM31.0698 25.4899C31.3962 25.517 31.7246 25.4738 32.0328 25.3631C32.341 25.2524 32.6219 25.0768 32.8564 24.8482C33.0909 24.6196 33.2736 24.3433 33.3922 24.038C33.5107 23.7326 33.5623 23.4055 33.5435 23.0785C33.568 22.7501 33.5203 22.4204 33.4038 22.1125C33.2872 21.8045 33.1046 21.5258 32.8689 21.296C32.6331 21.0662 32.3499 20.8908 32.039 20.7821C31.7282 20.6735 31.3974 20.6342 31.0698 20.6671H26.4933V25.5522H31.0698V25.4899Z" fill="black"/>
<path id="Path 253538" d="M41.0872 7H47.2096V30.8082H41.0872V7Z" fill="black"/>
<path id="Path 253539" d="M48.5488 22.3923C48.5488 17.0325 52.0116 13.4593 57.3922 13.4593C62.7728 13.4593 66.1695 17.0939 66.1695 22.3923C66.1695 27.7522 62.7718 31.3254 57.3922 31.3254C52.0126 31.3254 48.5488 27.7522 48.5488 22.3923ZM60.0509 22.3923C60.0509 19.4354 59.1231 17.5875 57.2685 17.5875C55.414 17.5875 54.5476 19.4354 54.5476 22.3923C54.5476 25.3493 55.413 27.2595 57.2685 27.2595C59.1193 27.1972 60.0509 25.3511 60.0509 22.3923Z" fill="black"/>
<path id="Path 253540" d="M66.9189 22.3923C66.9189 17.0325 70.3817 13.4593 75.7623 13.4593C81.1429 13.4593 84.4811 17.0325 84.4811 22.3923C84.4811 27.7522 81.0834 31.3254 75.7038 31.3254C70.3817 31.3254 66.9189 27.7522 66.9189 22.3923ZM78.421 22.3923C78.421 19.4354 77.4932 17.5875 75.6387 17.5875C73.7841 17.5875 72.9177 19.4354 72.9177 22.3923C72.9177 25.3493 73.7832 27.2595 75.6387 27.2595C77.4894 27.1972 78.421 25.3511 78.421 22.3923Z" fill="black"/>
<path id="Path 253541" d="M85.8022 13.8048H91.4914V16.353H91.6151C92.0753 15.3955 92.8083 14.5955 93.7221 14.0536C94.6358 13.5117 95.6894 13.252 96.7503 13.3074C97.7222 13.2607 98.6847 13.5172 99.5045 14.0413C100.324 14.5655 100.961 15.3314 101.327 16.2331H101.45C101.959 15.2984 102.723 14.5273 103.653 14.0094C104.583 13.4915 105.641 13.2481 106.704 13.3074C110.661 13.3074 112.33 16.2331 112.33 20.1461V30.8403H106.394V21.2032C106.394 19.4619 105.837 18.3435 104.353 18.3435C102.87 18.3435 102.13 19.711 102.13 21.5769V30.8412H96.1934V21.2032C96.1934 19.4619 95.6366 18.3435 94.153 18.3435C92.6693 18.3435 91.9265 19.711 91.9265 21.5769V30.8412H85.8022V13.8048Z" fill="black"/>
<path id="Path 253542" d="M119.9 28.5185H119.837V30.7459H114.149V7H120.086V15.5338H120.209C120.761 14.7831 121.491 14.181 122.333 13.7818C123.175 13.3825 124.102 13.1984 125.033 13.246C129.3 13.246 131.774 17.0797 131.774 22.2121C131.774 27.9626 129.115 31.3027 124.662 31.3027C123.688 31.3279 122.726 31.0807 121.884 30.5888C121.043 30.0969 120.356 29.3799 119.9 28.5185ZM125.65 22.1489C125.65 19.4279 124.661 17.6347 122.868 17.6347C121.012 17.6347 119.9 19.4279 119.9 22.1489C119.9 24.8698 121.075 26.663 122.868 26.663C124.661 26.663 125.651 24.9321 125.651 22.1507L125.65 22.1489Z" fill="black"/>
<path id="Path 253543" d="M132.518 22.3301C132.518 17.0316 136.043 13.397 141.113 13.397C142.201 13.3539 143.286 13.5278 144.305 13.9086C145.324 14.2894 146.257 14.8695 147.05 15.615C149.032 17.5252 149.895 20.4821 149.832 23.9317H138.455C138.702 26.026 139.691 27.1349 141.485 27.1349C142 27.1668 142.51 27.0263 142.936 26.7357C143.361 26.4452 143.678 26.0211 143.835 25.5305H149.587C148.598 29.4114 145.567 31.3216 141.3 31.3216C136.043 31.2631 132.518 27.6899 132.518 22.3301ZM138.455 20.5435H143.897C143.773 18.5105 142.66 17.4629 141.238 17.4629C139.568 17.4016 138.641 18.5719 138.455 20.5435Z" fill="black"/>
<path id="Path 253544" d="M156.682 16.7268H156.806C158.042 14.3673 159.651 13.431 161.691 13.431C162.032 13.4006 162.374 13.4659 162.68 13.6198V18.8399H162.557C159.031 18.218 156.988 19.897 156.988 23.7476V30.8978H150.993V13.8085H156.682V16.7268Z" fill="black"/>
<path id="Path 253545" d="M163.299 30.9025H169.05C169.239 31.3722 169.578 31.7663 170.014 32.0235C170.45 32.2807 170.959 32.3866 171.461 32.3248C173.378 32.3248 174.058 31.1498 174.058 29.3566V28.1202H173.938C173.451 28.7322 172.829 29.2236 172.121 29.5561C171.414 29.8885 170.639 30.0531 169.857 30.0371C166.208 30.0371 162.992 27.3161 162.992 21.9978C162.99 17.1156 165.587 13.3404 169.544 13.3404C170.448 13.2809 171.352 13.4681 172.158 13.882C172.964 14.2959 173.642 14.921 174.121 15.6904H174.244V13.8349H179.934V28.5525C179.998 29.6719 179.822 30.7921 179.416 31.8375C179.011 32.883 178.386 33.8293 177.583 34.6126C175.874 35.9352 173.742 36.5928 171.585 36.4634C167.009 36.5294 163.855 34.6702 163.299 30.9025ZM174.307 21.7477C174.307 19.6449 173.318 17.914 171.586 17.914C169.916 17.914 168.865 19.3986 168.865 21.7477C168.865 24.0355 169.916 25.6437 171.586 25.6437C173.255 25.6437 174.306 23.977 174.306 21.7506L174.307 21.7477Z" fill="black"/>
</g>
</g>
</svg>
