<svg width="200" height="44" viewBox="0 0 200 44" fill="none" xmlns="http://www.w3.org/2000/svg">
<g id="Business-insider.svg">
<g id="business-insider-2" style="mix-blend-mode:luminosity">
<path d="M62.5632 2.29288C63.4948 2.29288 64.4314 2.29288 65.3669 2.28688C65.3569 5.63533 65.4009 8.98378 65.3459 12.3322C65.3893 13.43 65.1426 14.5198 64.6305 15.4918C64.1185 16.4638 63.3592 17.2837 62.4293 17.8687C61.2985 18.4385 60.0467 18.7266 58.7806 18.7084C57.5145 18.6901 56.2715 18.366 55.1577 17.7637C54.2676 17.1748 53.5474 16.3628 53.0692 15.4087C52.5909 14.4546 52.3712 13.3918 52.4319 12.3262C52.4419 8.98178 52.4319 5.63633 52.4389 2.29188H55.1607C55.1677 5.19054 55.1547 8.0802 55.1607 10.9759C55.0586 12.3351 55.3542 13.6948 56.0113 14.889C56.6017 15.5632 57.4086 16.0105 58.2932 16.1541C59.1777 16.2976 60.0847 16.1285 60.858 15.6757C62.2294 14.8481 62.5222 13.1239 62.5492 11.6505C62.5722 8.53299 62.5492 5.41343 62.5592 2.29588M74.7116 2.35485C75.8974 2.02618 77.1379 1.94362 78.3568 2.11225C79.5757 2.28088 80.7473 2.69713 81.7993 3.3354C81.7863 4.31494 81.7863 5.29149 81.7863 6.26904C80.0241 4.95565 77.6792 3.98909 75.4892 4.75474C75.2556 4.82461 75.0393 4.94279 74.8543 5.10162C74.6693 5.26045 74.5198 5.45638 74.4154 5.67671C74.3109 5.89704 74.254 6.13686 74.2482 6.38061C74.2424 6.62436 74.2879 6.86661 74.3817 7.09166C74.7556 7.96925 75.7741 8.22413 76.5807 8.55098C78.3159 9.24166 80.317 9.61249 81.6034 11.0788C83.2566 13.0779 82.8378 16.6322 80.4159 17.8477C79.0264 18.4784 77.5042 18.7618 75.9808 18.6733C74.4573 18.5849 72.9782 18.1272 71.671 17.3399C71.671 16.3324 71.671 15.3288 71.657 14.3213C73.6241 15.8356 76.3548 16.7342 78.7627 15.8126C79.0623 15.6764 79.3204 15.4631 79.5108 15.1946C79.7012 14.9262 79.817 14.612 79.8464 14.2842C79.8759 13.9564 79.818 13.6267 79.6785 13.3286C79.539 13.0304 79.3231 12.7746 79.0526 12.5871C77.2044 11.4676 74.9345 11.2397 73.1623 9.97032C72.4239 9.3765 71.8933 8.56344 71.647 7.64847C71.4007 6.7335 71.4514 5.76393 71.7919 4.87968C72.0541 4.26419 72.4534 3.71675 72.9594 3.27916C73.4654 2.84157 74.0647 2.52542 74.7116 2.35485ZM100.01 2.04799C103.718 5.44642 107.325 8.96979 110.967 12.4432V2.28988H113.689V18.7183C109.975 15.1939 106.367 11.5626 102.633 8.05621V18.3604C101.752 18.3664 100.873 18.3664 99.9959 18.3704C100.001 12.931 99.9699 7.49747 100.01 2.04799ZM120.839 2.28688C124.124 2.28688 127.403 2.30388 130.684 2.27689C130.704 3.1045 130.704 3.93012 130.704 4.75774C128.349 4.75774 125.996 4.75774 123.643 4.75774V8.57797C125.742 8.58496 127.841 8.57797 129.94 8.58496V11.0488C127.84 11.0488 125.741 11.0488 123.643 11.0488C123.643 12.6641 123.643 14.2853 123.65 15.9016C125.998 15.8916 128.348 15.9016 130.694 15.8946C130.694 16.7452 130.7 17.5998 130.7 18.4504H120.832C120.838 13.0639 120.833 7.67738 120.839 2.28688ZM138.68 2.91959C141.232 1.44327 144.492 1.89506 146.996 3.25643C147.044 4.25597 147.044 5.25551 147.041 6.26104C145.224 4.89967 142.776 3.92712 140.544 4.81871C140.258 4.941 140.01 5.1388 139.827 5.39098C139.645 5.64317 139.534 5.94024 139.507 6.25046C139.48 6.56067 139.538 6.87236 139.675 7.15222C139.811 7.43207 140.021 7.66956 140.282 7.83931C142.156 8.91481 144.447 9.13171 146.199 10.4531C148.554 12.2093 148.38 16.4593 145.689 17.8197C144.299 18.4663 142.77 18.7591 141.239 18.6719C139.709 18.5847 138.223 18.1202 136.916 17.3199C136.916 16.3264 136.916 15.3328 136.899 14.3393C137.819 15.0856 138.893 15.62 140.043 15.9047C141.193 16.1894 142.392 16.2173 143.555 15.9865C144.001 15.8996 144.401 15.6554 144.683 15.2982C144.965 14.9411 145.109 14.4948 145.089 14.0404C145.079 13.6835 144.967 13.3369 144.766 13.0415C144.565 12.7461 144.285 12.5143 143.956 12.3732C142.118 11.4196 139.95 11.1508 138.284 9.86237C137.771 9.42592 137.366 8.87651 137.102 8.25728C136.837 7.63806 136.719 6.96588 136.758 6.29352C136.797 5.62117 136.991 4.96695 137.325 4.38224C137.659 3.79752 138.124 3.29824 138.684 2.92359M155.017 2.97856C157.548 1.44727 160.863 1.85908 163.363 3.25743C163.373 4.24797 163.373 5.23452 163.38 6.22506C161.581 4.86369 159.123 3.94212 156.922 4.8407C156.643 4.96806 156.402 5.16776 156.226 5.41917C156.049 5.67057 155.943 5.96458 155.918 6.27082C155.892 6.57707 155.95 6.88445 156.083 7.16124C156.216 7.43802 156.421 7.67417 156.677 7.84531C158.596 8.96179 160.985 9.13771 162.741 10.565C163.437 11.2004 163.926 12.0303 164.145 12.9471C164.364 13.8639 164.302 14.8253 163.968 15.7067C163.644 16.4402 163.14 17.0802 162.503 17.5673C161.866 18.0544 161.117 18.3729 160.324 18.4934C157.943 18.9614 155.474 18.5622 153.362 17.3679C153.328 16.3574 153.328 15.3468 153.324 14.3363C155.304 15.8066 158.003 16.7482 160.409 15.8226C160.709 15.6902 160.969 15.4808 161.162 15.2155C161.355 14.9502 161.474 14.6386 161.508 14.3122C161.541 13.9859 161.488 13.6565 161.353 13.3575C161.217 13.0586 161.006 12.8007 160.739 12.6101C158.84 11.4226 156.441 11.2527 154.665 9.84338C154.165 9.40878 153.771 8.86637 153.513 8.25716C153.254 7.64795 153.137 6.98788 153.171 6.32687C153.205 5.66586 153.389 5.02121 153.708 4.44166C154.028 3.8621 154.475 3.36282 155.016 2.98156M35 2.28988C37.8527 2.4568 40.8153 1.87008 43.576 2.76966C46.6416 3.7522 47.0744 8.54798 44.2757 10.1053C46.8245 11.1608 47.4092 14.7741 45.6601 16.7752C45.0811 17.3456 44.3892 17.7886 43.6289 18.0757C42.8686 18.3628 42.0566 18.4877 41.2451 18.4424C39.1621 18.4764 37.083 18.4424 35.001 18.4524V2.28988M37.7267 4.76074C37.7234 6.17608 37.7234 7.59142 37.7267 9.00677C39.1901 8.9358 40.7074 9.20668 42.1367 8.79886C42.5192 8.64322 42.847 8.37762 43.0786 8.03567C43.3102 7.69372 43.4352 7.29076 43.4378 6.87777C43.4403 6.46478 43.3204 6.06031 43.093 5.7155C42.8657 5.37069 42.5413 5.10104 42.1607 4.94065C40.6928 4.72898 39.207 4.66869 37.7267 4.76074ZM37.7267 11.3927C37.7207 12.924 37.7267 14.4552 37.7267 15.9805C39.407 15.8616 41.2111 16.3104 42.8004 15.6067C43.1548 15.398 43.4449 15.0959 43.6392 14.7334C43.8334 14.3709 43.9243 13.962 43.9018 13.5513C43.8793 13.1407 43.7443 12.7441 43.5116 12.405C43.279 12.0659 42.9575 11.7973 42.5825 11.6286C41.0172 11.1408 39.34 11.4956 37.7267 11.3957M89.5307 2.28988H92.2555V18.4534H89.5307V2.28988ZM78.3799 27.3882C80.9217 25.779 84.3111 26.2248 86.822 27.6781C86.808 28.6517 86.808 29.6242 86.812 30.5968C84.9748 29.2534 82.45 28.2159 80.238 29.2464C79.9872 29.3783 79.7734 29.5709 79.616 29.8066C79.4587 30.0423 79.3628 30.3137 79.337 30.5959C79.3113 30.8781 79.3566 31.1623 79.4687 31.4226C79.5809 31.6828 79.7563 31.9109 79.9791 32.0861C81.9942 33.3655 84.677 33.4274 86.4102 35.1766C86.9347 35.7559 87.3063 36.457 87.4912 37.2163C87.676 37.9756 87.6683 38.7691 87.4687 39.5246C87.2621 40.2566 86.8683 40.9222 86.3262 41.4557C85.7841 41.9892 85.1123 42.3723 84.3771 42.5672C83.1091 42.9331 81.7799 43.0367 80.4705 42.8717C79.1612 42.7068 77.8992 42.2766 76.7616 41.6077C76.7686 40.6081 76.7716 39.6136 76.7616 38.617C78.6777 40.0564 81.2805 41.0019 83.6355 40.1583C83.9599 40.0453 84.2463 39.844 84.4626 39.5771C84.6789 39.3102 84.8165 38.9882 84.8599 38.6474C84.9033 38.3066 84.8508 37.9605 84.7083 37.6479C84.5658 37.3353 84.339 37.0686 84.0533 36.8778C82.1541 35.6904 79.7323 35.5405 77.9831 34.0711C77.5117 33.6371 77.1427 33.1037 76.9029 32.5095C76.6631 31.9153 76.5583 31.2752 76.5963 30.6356C76.6343 29.9959 76.814 29.3727 77.1225 28.8111C77.431 28.2495 77.8605 27.7635 78.3799 27.3882ZM45.805 26.7046H48.5237C48.5304 32.0354 48.5304 37.3663 48.5237 42.6972H45.805V26.7046ZM56.2651 26.3307C59.8885 29.7871 63.4978 33.2575 67.1511 36.6839C67.1651 33.3285 67.1511 29.977 67.1571 26.6256C68.062 26.6216 68.9696 26.6216 69.8798 26.6256C69.8838 32.0741 69.8728 37.5245 69.8838 42.981C66.1915 39.4826 62.5722 35.9033 58.9079 32.3729C58.8909 35.8133 58.9079 39.2567 58.9009 42.7001H56.2651C56.2618 37.242 56.2618 31.7859 56.2651 26.3317V26.3307ZM94.5474 26.7046H97.2711V42.6972H94.5494L94.5474 26.7046ZM105.1 26.7046C107.291 26.7046 109.485 26.7022 111.68 26.6976C112.942 26.6672 114.19 26.973 115.295 27.5835C116.4 28.194 117.323 29.0874 117.969 30.172C118.586 31.3606 118.956 32.6622 119.056 33.998C119.156 35.3338 118.984 36.676 118.55 37.9434C118.083 39.2483 117.245 40.3883 116.139 41.223C115.032 42.0577 113.706 42.5506 112.323 42.6412C109.917 42.7641 107.508 42.6582 105.1 42.6922V26.7046ZM107.903 29.1714V40.2273C109.853 40.1563 111.952 40.5272 113.765 39.6156C114.587 39.1218 115.255 38.4099 115.696 37.559C116.137 36.7081 116.333 35.7515 116.262 34.7958C116.36 33.8282 116.194 32.8523 115.78 31.972C115.366 31.0918 114.722 30.3405 113.914 29.7981C112.08 28.7736 109.906 29.3054 107.908 29.1754M124.666 26.7086C127.926 26.7086 131.187 26.7086 134.45 26.7086C134.45 27.5322 134.45 28.3548 134.45 29.1794C132.096 29.1728 129.743 29.1728 127.392 29.1794V32.9157C129.489 32.9197 131.588 32.9197 133.689 32.9157V35.2976C131.59 35.2976 129.491 35.2976 127.392 35.2976V40.2243C129.744 40.2313 132.099 40.2243 134.454 40.2243V42.6912H124.663L124.666 26.7086ZM142.449 26.7086C144.657 26.7286 146.866 26.6876 149.071 26.7226C150.027 26.7044 150.965 26.9856 151.754 27.5266C152.542 28.0676 153.142 28.8416 153.469 29.7402C153.742 30.5706 153.823 31.4525 153.703 32.3186C153.584 33.1847 153.269 34.0121 152.781 34.7378C152.07 35.4921 151.131 35.993 150.108 36.1642C152.019 38.3245 153.919 40.5002 155.805 42.6912C154.728 42.7118 153.655 42.7118 152.586 42.6912C150.762 40.5242 148.903 38.3871 147.07 36.2331C146.464 36.2331 145.863 36.2331 145.261 36.2331C145.255 38.3871 145.261 40.5411 145.261 42.6952C144.328 42.6952 143.392 42.6952 142.454 42.6952V26.7026M145.249 29.0875C145.243 30.6737 145.249 32.259 145.249 33.8443C146.702 33.7633 148.222 34.0721 149.628 33.6204C150.02 33.4266 150.352 33.1284 150.586 32.7585C150.819 32.3886 150.947 31.9613 150.954 31.5237C150.96 31.0861 150.846 30.6551 150.624 30.2782C150.401 29.9013 150.079 29.593 149.693 29.3873C148.285 28.8486 146.73 29.1654 145.257 29.0875" fill="black"/>
</g>
</g>
</svg>
