<svg width="200" height="44" viewBox="0 0 200 44" fill="none" xmlns="http://www.w3.org/2000/svg">
<g id="Tech-Crunch.svg">
<g id="c" style="mix-blend-mode:luminosity">
<path id="Path 253525" d="M80.1506 19.7933V29.8259H76.4852V19.7933H72.7831V16.6003H83.8547V19.7933H80.1516H80.1506Z" fill="black"/>
<path id="Path 253526" d="M92.3599 25.8311H86.5413C86.5378 26.0486 86.5797 26.2644 86.6643 26.4648C86.7488 26.6652 86.8742 26.8458 87.0324 26.9951C87.1906 27.1444 87.3782 27.259 87.5832 27.3318C87.7882 27.4046 88.006 27.4338 88.223 27.4177C89.126 27.4128 90.012 27.1718 90.793 26.7185L92.0964 28.8914C90.8783 29.6356 89.4773 30.0266 88.0498 30.0207C85.0639 30.0207 83.4208 27.9042 83.4208 24.8627C83.4208 21.4439 85.3471 19.6869 87.9548 19.6869C90.5625 19.6869 92.3778 21.4815 92.3778 25.1658C92.3826 25.3855 92.3763 25.6054 92.3589 25.8245L92.3599 25.8311ZM87.8635 22.2024C87.089 22.2024 86.6542 22.7312 86.5413 23.7137H89.3758C89.2045 22.7087 88.8648 22.1996 87.8635 22.1996V22.2024Z" fill="black"/>
<path id="Path 253527" d="M98.6339 30.0207C95.7251 30.0207 93.9869 28.1696 93.9869 24.826C93.9869 21.7845 95.5369 19.6869 98.7092 19.6869C99.4947 19.6651 100.27 19.8665 100.946 20.2677C101.622 20.669 102.169 21.2537 102.526 21.9539L100.184 23.7297C99.7133 22.8602 99.3905 22.4452 98.6537 22.4452C97.7832 22.4452 97.3503 23.3147 97.3503 24.8816C97.3503 26.4484 97.8208 27.2615 98.7487 27.2615C99.3905 27.2615 99.8441 26.902 100.468 25.977L102.622 27.6586C101.47 29.3591 100.393 30.0207 98.6358 30.0207H98.6339Z" fill="black"/>
<path id="Path 253528" d="M110.179 29.8268V24.1937C110.179 22.9091 109.744 22.5694 109.05 22.5694C108.355 22.5694 107.897 22.91 107.897 24.156V29.824H104.493V17.418L107.893 16.0582V20.5753C108.593 19.9958 109.479 19.6872 110.388 19.7057C112.561 19.7057 113.6 21.1606 113.6 23.7674V29.8325H110.181L110.179 29.8268Z" fill="black"/>
<path id="Path 253529" d="M121.676 30.031C117.746 30.031 115.653 27.1213 115.653 23.2112C115.653 18.9604 118.147 16.3913 121.699 16.3913C124.95 16.3913 126.234 17.7888 127.141 20.2835L123.817 21.5869C123.346 20.3588 122.891 19.5834 121.681 19.5834C120.151 19.5834 119.49 21.1136 119.49 23.2102C119.49 25.3069 120.131 26.8371 121.719 26.8371C122.871 26.8371 123.363 26.2141 124.08 24.9672L127.178 26.6112C126.718 27.6725 125.945 28.5684 124.963 29.1794C123.981 29.7904 122.836 30.0874 121.68 30.031H121.676Z" fill="black"/>
<path id="Path 253530" d="M135.485 23.6356C135.296 23.3905 135.057 23.1891 134.783 23.0455C134.509 22.9019 134.207 22.8194 133.898 22.8037C133.067 22.8037 132.556 23.2008 132.556 24.4091V29.8127H129.156V19.893H132.556V20.611C132.828 20.3212 133.155 20.0897 133.519 19.9305C133.883 19.7713 134.276 19.6878 134.673 19.685C135.237 19.6644 135.795 19.809 136.278 20.101L135.485 23.6337V23.6356Z" fill="black"/>
<path id="Path 253531" d="M143.519 29.8118V29.153C142.826 29.7324 141.947 30.0416 141.045 30.0235C138.872 30.0235 137.832 28.5686 137.832 25.9609V19.893H141.253V25.5234C141.253 26.807 141.687 27.1476 142.382 27.1476C143.076 27.1476 143.511 26.807 143.511 25.5601V19.893H146.931V29.8118H143.511H143.519Z" fill="black"/>
<path id="Path 253532" d="M154.913 29.8137V24.1833C154.913 22.8988 154.478 22.559 153.784 22.559C153.089 22.559 152.631 22.8997 152.631 24.1457V29.8137H149.231V19.894H152.631V20.5527C153.331 19.9733 154.217 19.6647 155.126 19.6832C157.299 19.6832 158.338 21.138 158.338 23.7448V29.8099H154.919L154.913 29.8137Z" fill="black"/>
<path id="Path 253533" d="M164.961 30.0207C162.052 30.0207 160.314 28.1696 160.314 24.826C160.314 21.7845 161.864 19.6869 165.037 19.6869C165.822 19.6651 166.598 19.8665 167.274 20.2677C167.949 20.669 168.497 21.2537 168.854 21.9539L166.512 23.7297C166.041 22.8602 165.717 22.4452 164.981 22.4452C164.111 22.4452 163.678 23.3147 163.678 24.8816C163.678 26.4484 164.149 27.2615 165.076 27.2615C165.718 27.2615 166.172 26.902 166.796 25.977L168.95 27.6586C167.798 29.3591 166.72 30.0207 164.964 30.0207H164.961Z" fill="black"/>
<path id="Path 253534" d="M176.559 29.8268V24.1937C176.559 22.9091 176.124 22.5694 175.43 22.5694C174.735 22.5694 174.277 22.91 174.277 24.156V29.824H170.877V17.418L174.277 16.0582V20.5753C174.978 19.9957 175.863 19.6871 176.772 19.7057C178.945 19.7057 179.985 21.1606 179.985 23.7674V29.8325H176.565L176.559 29.8268Z" fill="black"/>
<path id="Path 253535" d="M20 11V18.52H27.5548V33.56H35.1106V18.52H42.6654V11H20Z" fill="black"/>
<path id="Path 253536" d="M50.2212 26.0042V18.4485H42.6664V33.56H65.3327V26.0042H50.2212Z" fill="black"/>
<path id="Rectangle 27934" d="M65.1755 11H50.064V18.5548H65.1755V11Z" fill="black"/>
</g>
</g>
</svg>
