<svg width="200" height="44" viewBox="0 0 200 44" fill="none" xmlns="http://www.w3.org/2000/svg">
<g id="The-Guardian.svg">
<g id="The_Guardian_2018" style="mix-blend-mode:luminosity">
<path d="M69.8413 23.1649C70.2121 22.98 70.6199 22.7571 70.9907 22.5712C71.1387 22.4973 71.6584 22.3113 71.7324 22.1634C71.751 22.0281 71.751 21.8909 71.7324 21.7556V7.51835C71.7324 7.48136 71.7694 7.21849 71.7324 7.1845C71.6954 7.15052 71.3985 7.1845 71.3616 7.1845H70.5459C70.2461 7.1845 70.2861 7.22149 70.1012 7.44438C69.4015 8.37094 68.6918 9.2985 67.9882 10.262C67.6543 10.7068 67.3205 11.1146 67.0246 11.5614C66.8017 11.8613 66.8017 11.8953 66.3939 11.8953L66.5049 9.44843C66.5418 8.85471 66.5418 8.26199 66.5788 7.66828C66.5788 7.44538 66.6158 7.22349 66.6158 7.00059C66.6158 6.92663 66.5788 6.70073 66.6158 6.66675C66.6898 6.5558 67.3575 6.62977 67.5424 6.62977H81.4098C81.5699 6.61128 81.7315 6.61128 81.8916 6.62977C81.9655 6.66675 81.9286 6.88964 81.9286 7.00059C81.9655 7.48236 81.9655 8.00012 82.0025 8.48389C82.0395 9.55938 82.0765 10.5969 82.1505 11.6724V11.8953C81.9655 11.8953 81.8166 11.9323 81.6687 11.8213C81.525 11.6772 81.4004 11.5153 81.2979 11.3395C80.8531 10.7458 80.4083 10.1161 79.9255 9.5224L78.5921 7.74124C78.5182 7.63029 78.4072 7.37042 78.2583 7.29645C78.1473 7.22249 77.9245 7.25947 77.7765 7.25947H77.1848C77.0371 7.24094 76.8877 7.24094 76.74 7.25947C76.703 7.29645 76.74 7.29645 76.703 7.37042C76.666 7.69053 76.666 8.01385 76.703 8.33396V21.2369C76.666 21.5322 76.666 21.8311 76.703 22.1264C76.777 22.3863 77.3707 22.5712 77.6296 22.6822C77.9565 22.8055 78.2675 22.9672 78.5562 23.1639C78.6051 23.2469 78.6369 23.3388 78.6496 23.4343C78.6623 23.5298 78.6557 23.6268 78.6301 23.7197C78.5931 23.7567 78.4072 23.7197 78.3702 23.7197H70.2121C70.1381 23.7197 69.8783 23.7567 69.8413 23.7197C69.8227 23.5349 69.8227 23.3497 69.8413 23.1649ZM83.5968 22.4973V6.7767C83.6339 6.51848 83.6339 6.25628 83.5968 5.99807C83.5228 5.73819 83.078 5.69821 82.8181 5.59026C82.6702 5.55328 82.1874 5.44233 82.1185 5.2904V4.99054H82.2294C82.4344 4.93576 82.6443 4.90161 82.8561 4.88859C83.19 4.81463 83.5238 4.77764 83.8197 4.70368C84.5613 4.55175 85.3399 4.40382 86.0806 4.28887C86.5254 4.21491 86.9702 4.10396 87.415 4.029C87.5259 4.029 87.9707 3.95503 88.0087 4.029C88.0457 4.06598 88.0087 4.21391 88.0087 4.25189V11.9303C88.7718 11.2011 89.6988 10.6656 90.7117 10.3689C91.7246 10.0722 92.794 10.0229 93.8299 10.2251C95.5351 10.6329 96.0919 12.2241 96.0919 13.8583C96.1288 15.9344 96.0919 17.9744 96.0919 20.0504V21.7186C96.0548 21.9892 96.0548 22.2636 96.0919 22.5342C96.1288 22.6082 96.2768 22.6452 96.3517 22.7192C96.6116 22.8671 96.9075 23.019 97.1673 23.1639C97.2043 23.2009 97.3153 23.2379 97.3153 23.2749C97.3523 23.4083 97.3523 23.5493 97.3153 23.6827C97.2783 23.7567 97.2783 23.7197 97.1673 23.7197C96.7604 23.7568 96.3509 23.7568 95.9439 23.7197H90.6054C90.5685 23.7197 90.3826 23.7567 90.3456 23.7197C90.3085 23.5612 90.3085 23.3964 90.3456 23.2379C90.4565 23.09 90.9013 22.938 91.0452 22.8301C91.1562 22.7561 91.49 22.6452 91.564 22.5302C91.638 22.4153 91.564 22.0115 91.564 21.8995V20.3813C91.564 18.2313 91.601 16.0433 91.564 13.8923C91.6098 13.5676 91.5653 13.2365 91.4353 12.9353C91.3054 12.6342 91.095 12.3746 90.8273 12.1851C90.4678 12.0191 90.0734 11.9426 89.6779 11.9622C89.3882 11.9722 89.1014 12.022 88.8253 12.1102C88.5382 12.1855 88.272 12.3249 88.0467 12.518C87.9357 12.6659 88.0097 12.8888 88.0097 13.0737V21.8306C87.973 22.0624 87.973 22.2985 88.0097 22.5302C88.0882 22.6212 88.193 22.6858 88.3095 22.7152C88.5694 22.8631 88.9033 23.015 89.1621 23.1599C89.1991 23.1969 89.2731 23.1969 89.2731 23.2339C89.3102 23.3673 89.3102 23.5083 89.2731 23.6417C89.2361 23.6787 89.1991 23.6787 89.1252 23.6787C88.7173 23.7157 88.2726 23.6787 87.8647 23.6787H82.5223C82.4853 23.6787 82.2994 23.7157 82.2624 23.6787C82.2388 23.5174 82.2515 23.3528 82.2994 23.1969C82.5003 23.0379 82.7259 22.9127 82.9671 22.8261C83.1852 22.7304 83.396 22.6188 83.5978 22.4923L83.5968 22.4973ZM101.209 17.3827C101.283 19.0139 101.803 20.831 103.285 21.7206C104.092 22.1502 105.009 22.3307 105.918 22.2394C106.945 22.0583 107.927 21.6806 108.81 21.1269C108.828 21.3117 108.828 21.4979 108.81 21.6826C108.707 21.8469 108.582 21.9966 108.439 22.1274C108.275 22.2971 108.102 22.458 107.92 22.6092C107.302 23.1122 106.599 23.5014 105.844 23.7587C104.386 24.2093 102.83 24.2349 101.358 23.8326C100.215 23.5669 99.1806 22.9592 98.3918 22.0905C97.6278 21.1693 97.1394 20.0513 96.9824 18.865C96.5746 16.3062 97.0564 13.3776 99.1704 11.6684C100.171 10.9469 101.337 10.4875 102.561 10.3321C103.785 10.1768 105.029 10.3303 106.178 10.7788C108.848 11.8543 109.293 14.8949 109.293 17.4157H102.21C101.878 17.3849 101.544 17.3725 101.21 17.3787L101.209 17.3827ZM101.135 16.752C101.877 16.715 102.619 16.678 103.397 16.604C103.842 16.5671 104.324 16.5671 104.77 16.5301C104.882 16.5362 104.995 16.5237 105.104 16.4931C105.215 16.4191 105.141 15.6775 105.141 15.5296C105.236 14.1056 104.941 12.6826 104.288 11.4135C104.189 11.2409 104.045 11.0987 103.871 11.0022C103.697 10.9058 103.5 10.8588 103.302 10.8665C103.103 10.8741 102.91 10.936 102.744 11.0455C102.578 11.155 102.445 11.3078 102.36 11.4875C101.283 12.9318 101.134 15.0838 101.134 16.751L101.135 16.752ZM45 30.2836C44.9293 28.1849 45.4704 26.111 46.5573 24.3144C47.7078 22.6486 49.4181 21.4512 51.377 20.94C53.7813 20.3346 56.2918 20.284 58.7185 20.7921C59.2373 20.903 59.7571 21.015 60.2388 21.1629C60.3128 21.1999 60.6466 21.2738 60.6836 21.3478V21.4587C60.7515 21.9378 60.7639 22.4231 60.7206 22.9051C60.7576 24.0545 60.7576 25.241 60.7946 26.3904C60.6221 26.409 60.4482 26.409 60.2758 26.3904C60.2018 26.3534 60.1279 26.1675 60.0909 26.0906C59.791 25.6458 59.4972 25.201 59.2383 24.7182C58.6076 23.7187 57.9389 22.7192 57.3102 21.7196C56.9764 21.1639 56.0498 21.1639 55.4561 21.1639C54.7971 21.1389 54.1437 21.2926 53.565 21.6087C52.3904 22.5049 51.6068 23.8195 51.377 25.2789C50.9388 27.4874 50.814 29.7465 51.0062 31.9898C51.0305 33.7241 51.344 35.4422 51.9338 37.0734C52.1029 37.5668 52.391 38.011 52.7727 38.3666C53.1543 38.7222 53.6176 38.9784 54.1217 39.1124C54.4636 39.1809 54.8143 39.1934 55.1602 39.1494C55.3831 39.1124 56.1598 39.0754 56.2727 38.8495C56.2912 38.739 56.2912 38.6262 56.2727 38.5157V32.4346C56.2727 32.1747 56.3467 32.0637 56.1248 31.9158C55.845 31.7691 55.5727 31.6083 55.3092 31.434C55.1242 31.3231 54.7534 31.2111 54.6415 31.0632C54.5991 30.9775 54.5741 30.8844 54.5677 30.789C54.5614 30.6937 54.5739 30.598 54.6045 30.5075C54.6415 30.4335 54.6415 30.4705 54.7524 30.4705C55.1223 30.4334 55.495 30.4334 55.8649 30.4705H61.6122C61.983 30.4705 62.3908 30.4335 62.7616 30.4705H62.9096C62.9467 30.6791 62.9467 30.8926 62.9096 31.1012C62.7297 31.2419 62.5295 31.3544 62.3158 31.435C62.036 31.5818 61.7638 31.7426 61.5002 31.9168C61.2004 32.0647 61.2404 32.0647 61.2404 32.3986V38.4417C61.2589 38.5522 61.2589 38.665 61.2404 38.7756C61.1664 38.9605 60.3878 39.0754 60.1649 39.1464C59.5193 39.3338 58.8631 39.4823 58.1998 39.5912C56.9139 39.8068 55.6098 39.8938 54.3066 39.851C52.1841 39.8671 50.1052 39.2478 48.3375 38.0729C46.8756 36.9631 45.8514 35.3738 45.4448 33.584C45.1286 32.5131 44.9786 31.4 45 30.2836ZM62.0919 26.9102C62.0919 26.8362 62.055 26.5393 62.0919 26.5024C62.1289 26.4654 62.1659 26.5024 62.2029 26.4654C62.4535 26.3772 62.716 26.3273 62.9815 26.3175C63.8341 26.1695 64.6867 26.0176 65.5803 25.8727C66.248 25.7617 66.9147 25.6128 67.5454 25.5388C67.7428 25.4954 67.9485 25.5082 68.1391 25.5758C68.324 25.6128 68.25 25.5758 68.287 25.7237C68.3241 26.1928 68.3241 26.664 68.287 27.1331V34.8824C68.287 35.809 68.0271 37.5152 68.9177 38.0709C69.4068 38.337 69.98 38.4033 70.517 38.2558C70.9248 38.1818 71.7034 37.885 71.8513 37.4402C71.8699 37.3173 71.8699 37.1923 71.8513 37.0694V27.9847C71.8699 27.8617 71.8699 27.7367 71.8513 27.6138C71.6683 27.4965 71.4679 27.4088 71.2576 27.354C71.0347 27.28 70.8498 27.169 70.6269 27.0941C70.5529 27.0571 70.2931 27.0201 70.2561 26.9462C70.219 26.8127 70.219 26.6718 70.2561 26.5383C70.2931 26.5014 70.2931 26.5383 70.33 26.5014C70.5562 26.4289 70.7922 26.3915 71.0297 26.3904C72.55 26.1305 74.1073 25.7967 75.6645 25.5748C75.8479 25.5378 76.0369 25.5378 76.2203 25.5748C76.4052 25.6118 76.3312 25.5378 76.3682 25.7227C76.4054 26.1551 76.4054 26.5898 76.3682 27.0221V37.6991C76.3496 37.8467 76.3496 37.9962 76.3682 38.1439C76.4052 38.2548 76.3682 38.2178 76.5531 38.2918C76.9239 38.4397 77.3317 38.6256 77.7026 38.7736C77.8135 38.8105 77.8505 38.8105 77.8875 38.8845C77.9245 38.9585 77.9245 39.2183 77.8875 39.2183C77.8135 39.2923 77.4427 39.2553 77.3687 39.2923C76.5531 39.4033 75.7375 39.4772 74.8849 39.5922C74.1432 39.6661 73.4016 39.7771 72.6969 39.852C72.551 39.8893 72.3981 39.8893 72.2521 39.852C72.1395 39.8603 72.0264 39.8478 71.9183 39.8151C71.8998 39.6674 71.8998 39.518 71.9183 39.3703V38.7396C71.9183 38.6286 71.9923 38.3318 71.9183 38.2208C71.8443 38.1099 71.6954 38.2578 71.5845 38.3318C70.8963 38.9451 70.0796 39.3966 69.1943 39.6532C68.3089 39.9099 67.3774 39.9652 66.4679 39.8151C65.9542 39.7265 65.4696 39.5147 65.0557 39.1979C64.6417 38.8811 64.3107 38.4686 64.091 37.9959C63.7951 37.2939 63.6586 36.5351 63.6912 35.774V27.9877C63.7097 27.8647 63.7097 27.7397 63.6912 27.6168C63.6172 27.5059 63.1724 27.3939 63.0605 27.317C62.6857 27.169 62.3918 27.0581 62.0919 26.9102ZM97.0554 25.5008C97.1294 25.5008 97.4632 25.5008 97.5002 25.5748C97.5372 25.6118 97.5002 25.8747 97.5002 25.9086V29.1711C97.4816 29.3064 97.4816 29.4436 97.5002 29.5789V29.6529C97.6481 29.8008 97.6851 29.319 97.7231 29.282C98.0569 27.9097 98.6866 26.3155 100.096 25.7597C100.346 25.6647 100.607 25.6039 100.874 25.5788C101.096 25.5788 101.726 25.5048 101.837 25.6897C101.856 25.8003 101.856 25.9131 101.837 26.0236V29.8058C100.929 29.6324 99.9961 29.645 99.0934 29.8428C98.6943 29.9099 98.3071 30.0349 97.944 30.2136C97.7591 30.2876 97.7211 30.2506 97.6841 30.3985C97.6656 30.5833 97.6656 30.7695 97.6841 30.9543V38.1099C97.6841 38.1838 97.6471 38.2948 97.6841 38.3697C97.7581 38.4807 98.0179 38.5547 98.1289 38.5926C98.3138 38.7036 98.5367 38.8155 98.7226 38.9265C98.7966 38.9635 98.9075 39.0005 98.9455 39.0744C98.9825 39.2453 98.9825 39.4222 98.9455 39.5932C98.9085 39.6301 98.6856 39.5932 98.6117 39.5932H92.4586C92.2376 39.6303 92.0119 39.6303 91.7909 39.5932H91.6779C91.6595 39.4331 91.6595 39.2715 91.6779 39.1114C91.7519 38.8885 92.2337 38.7406 92.4566 38.6296C92.6045 38.5557 92.9014 38.4447 92.9753 38.2958C92.9939 38.1729 92.9939 38.0479 92.9753 37.925V27.6138C92.9753 27.5769 93.0123 27.3909 92.9753 27.354C92.8821 27.3073 92.7797 27.282 92.6755 27.28C92.458 27.2012 92.2348 27.1394 92.0078 27.0951C91.7849 27.0211 91.2292 26.9841 91.4141 26.6133C91.451 26.5024 91.599 26.5393 91.7479 26.5024C93.3791 26.2025 94.9734 25.9086 96.6046 25.6128C96.748 25.5585 96.8973 25.5213 97.0494 25.5018L97.0554 25.5008ZM111.034 25.8347V22.0155C111.052 21.8678 111.052 21.7184 111.034 21.5707C110.997 21.4967 110.849 21.4597 110.734 21.4228C110.434 21.3118 110.14 21.1999 109.807 21.0889C109.584 21.015 109.474 21.0519 109.474 20.7891C109.474 20.5662 109.437 20.6411 109.621 20.6042C110.048 20.4939 110.482 20.4193 110.921 20.3813C112.144 20.1584 113.331 19.9365 114.554 19.7136C114.809 19.6523 115.071 19.6274 115.333 19.6396C115.633 19.6766 115.667 19.6026 115.667 19.8625C115.704 20.4562 115.667 21.0859 115.667 21.6796V37.922C115.667 38.0699 115.63 38.0699 115.741 38.1449C115.999 38.2772 116.273 38.3779 116.556 38.4447C116.704 38.4817 117.112 38.5557 117.187 38.6676C117.224 38.8261 117.224 38.9909 117.187 39.1494C117.09 39.1802 116.988 39.1928 116.887 39.1864C116.368 39.2603 115.887 39.3343 115.367 39.3713C114.217 39.5192 113.068 39.6711 111.881 39.8161C111.696 39.853 111.251 39.927 111.182 39.7791C111.145 39.5209 111.145 39.2587 111.182 39.0004C111.182 38.8895 111.256 38.4067 111.182 38.3328C111.108 38.2588 110.292 39.0005 110.182 39.0744C109.738 39.3709 109.25 39.5962 108.736 39.7421C107.898 39.9582 107.021 39.9709 106.177 39.7791C102.618 38.9635 101.879 34.7365 102.173 31.6589C102.258 30.0199 102.884 28.4552 103.953 27.21C104.993 26.1714 106.379 25.5513 107.846 25.4679C108.923 25.327 110.019 25.4544 111.035 25.8387L111.034 25.8347ZM111.034 37.6621V26.8352C111.034 26.6123 110.997 26.5753 110.734 26.4274C110.475 26.2708 110.184 26.1731 109.883 26.1411C109.582 26.1092 109.278 26.1438 108.992 26.2425C108.599 26.4669 108.262 26.7766 108.006 27.1487C107.749 27.5209 107.579 27.9459 107.508 28.3925C107.121 29.905 106.973 31.469 107.071 33.0273C106.985 34.4585 107.266 35.8879 107.886 37.1803C108.053 37.4296 108.269 37.6415 108.522 37.8025C108.775 37.9635 109.058 38.07 109.354 38.1154C109.651 38.1607 109.953 38.1438 110.242 38.0657C110.532 37.9877 110.802 37.8502 111.035 37.6621H111.034ZM123.307 25.5008C123.492 25.5378 123.715 25.4639 123.789 25.6488C123.807 25.8088 123.807 25.9705 123.789 26.1305V37.736C123.77 37.9085 123.77 38.0824 123.789 38.2548C123.826 38.4027 123.974 38.4397 124.123 38.5147C124.345 38.6256 124.53 38.7376 124.753 38.8485C124.827 38.8855 125.053 38.9595 125.087 39.0714C125.106 39.2438 125.106 39.4177 125.087 39.5902H124.976C124.717 39.6087 124.457 39.6087 124.198 39.5902H118.565C118.417 39.5902 118.009 39.6641 117.898 39.5902C117.855 39.5047 117.829 39.4115 117.823 39.316C117.816 39.2206 117.829 39.1248 117.861 39.0344C117.935 38.9235 118.194 38.8495 118.305 38.8115C118.528 38.7006 118.75 38.5517 118.973 38.4407C119.158 38.3298 119.121 38.3667 119.121 38.2178C119.158 37.6377 119.158 37.0558 119.121 36.4756V28.2076C119.139 28.0228 119.139 27.8366 119.121 27.6518C119.084 27.5039 118.898 27.5039 118.75 27.4289C118.49 27.318 118.268 27.244 118.008 27.1291C117.935 27.0921 117.638 27.0551 117.564 26.9442C117.526 26.7982 117.526 26.6453 117.564 26.4994C117.601 26.4624 117.675 26.4994 117.712 26.4624C118.028 26.3795 118.35 26.3177 118.675 26.2775C119.157 26.2035 119.602 26.0926 120.084 26.0176C121.011 25.8697 121.902 25.6838 122.828 25.5358C122.989 25.562 123.155 25.5493 123.31 25.4988L123.307 25.5008ZM123.826 22.0525C123.787 22.5519 123.601 23.0286 123.291 23.4222C122.981 23.8158 122.561 24.1086 122.085 24.2634C121.609 24.4183 121.097 24.4283 120.615 24.2922C120.133 24.1561 119.702 23.8799 119.377 23.4988C119.072 23.1043 118.897 22.6246 118.877 22.1262C118.857 21.6278 118.993 21.1356 119.266 20.7181C119.553 20.3053 119.958 19.989 120.427 19.8106C120.897 19.6322 121.41 19.6001 121.899 19.7186C122.44 19.8243 122.929 20.1148 123.28 20.5405C123.632 20.9661 123.824 21.5005 123.826 22.0525ZM140.066 38.3298V27.6888C140.066 27.6518 140.103 27.4659 140.066 27.4289C140.029 27.355 139.806 27.318 139.732 27.318L139.065 27.0951C138.954 27.0581 138.657 27.0211 138.583 26.9102C138.509 26.8362 138.546 26.6503 138.546 26.5393C138.546 26.3165 138.62 26.3544 138.846 26.3165L141.292 25.8717L143.739 25.4269C143.871 25.3844 144.009 25.3595 144.147 25.3529C144.321 25.3468 144.495 25.3592 144.666 25.3899C144.703 25.4269 144.666 25.6498 144.666 25.7237V26.4234C144.666 26.5343 144.592 26.8682 144.666 26.9791C144.74 27.1271 144.889 26.9791 145 26.8682C145.323 26.6115 145.671 26.3878 146.038 26.2005C147.39 25.4418 148.951 25.1426 150.487 25.3479C150.987 25.3922 151.464 25.576 151.863 25.8784C152.263 26.1808 152.57 26.5896 152.749 27.0581C152.978 27.7638 153.08 28.5047 153.049 29.2461V37.7001C153.03 37.8848 153.03 38.071 153.049 38.2558C153.086 38.4037 153.197 38.4407 153.383 38.5157C153.568 38.6266 153.791 38.7386 153.976 38.8495C154.05 38.8865 154.31 38.9605 154.347 39.0724C154.384 39.2309 154.384 39.3957 154.347 39.5542C154.31 39.6282 154.384 39.5542 154.273 39.5912C154.052 39.6283 153.827 39.6283 153.606 39.5912H148.308C148.085 39.5912 147.233 39.7021 147.122 39.5542C147.085 39.3833 147.085 39.2064 147.122 39.0354C147.159 38.9615 147.382 38.8875 147.456 38.8505C147.678 38.7396 147.863 38.6276 148.086 38.5167C148.16 38.4797 148.386 38.4057 148.42 38.3318C148.454 38.2578 148.42 38.1089 148.42 38.0319V29.6159C148.497 29.0022 148.381 28.3797 148.086 27.8357C147.926 27.6393 147.721 27.4833 147.49 27.3802C147.258 27.2771 147.005 27.2298 146.752 27.242C146.364 27.234 145.976 27.2838 145.602 27.3899C145.418 27.4639 144.861 27.6128 144.75 27.8347C144.713 27.9087 144.75 28.0576 144.75 28.1346V37.738C144.731 37.8981 144.731 38.0598 144.75 38.2198C144.787 38.3677 145.01 38.4047 145.121 38.4797C145.306 38.5906 145.528 38.7026 145.714 38.8135C145.805 38.8547 145.892 38.9042 145.974 38.9615C146.011 39.1324 146.011 39.3093 145.974 39.4802C145.974 39.5172 145.937 39.4802 145.9 39.4802C145.679 39.5173 145.454 39.5173 145.233 39.4802H138.991C138.806 39.4802 138.768 39.5172 138.731 39.4063C138.694 39.2478 138.694 39.0829 138.731 38.9245C138.768 38.8505 138.991 38.7766 139.065 38.7396C139.423 38.6748 139.765 38.5351 140.066 38.3298ZM132.206 31.508C132.206 30.5444 132.243 29.5429 132.169 28.5414C132.059 27.4659 131.759 26.2785 130.538 26.0566C130.167 25.9826 129.499 25.8717 129.238 26.1675C128.995 26.4609 128.772 26.7705 128.57 27.0941L126.679 29.6529C126.568 29.8008 126.456 30.0977 126.309 30.1716C126.175 30.2088 126.034 30.2088 125.901 30.1716C125.864 30.1346 125.901 29.8718 125.901 29.8008V26.8022C125.882 26.6669 125.882 26.5297 125.901 26.3944C125.975 26.2095 126.79 26.0946 126.976 26.0236C128.022 25.7578 129.089 25.5842 130.165 25.5048C131.735 25.3093 133.329 25.5135 134.8 26.0986C135.329 26.3317 135.79 26.6957 136.14 27.1563C136.489 27.6169 136.716 28.1589 136.799 28.7313C136.879 29.3459 136.904 29.9664 136.873 30.5854V38.0009C136.873 38.1119 136.799 38.4087 136.873 38.4827C136.953 38.5243 137.042 38.5494 137.132 38.5567C137.432 38.6306 137.688 38.7046 137.985 38.7796C138.17 38.8165 138.208 38.8165 138.208 39.0024C138.208 39.1884 138.245 39.1874 138.023 39.2623C137.77 39.3784 137.51 39.4785 137.244 39.5622C135.872 39.97 133.722 40.0809 132.721 38.8205C132.647 38.7096 132.421 38.2268 132.313 38.1898C132.165 38.1528 131.719 38.7456 131.571 38.8575C130.958 39.3656 130.212 39.6871 129.421 39.7841C128.709 39.9358 127.968 39.8879 127.281 39.6458C126.594 39.4036 125.988 38.9766 125.528 38.4117C125.157 37.8332 124.933 37.1728 124.874 36.488C124.816 35.8031 124.926 35.1144 125.194 34.4816C126.194 32.2197 129.161 31.9978 131.312 31.6269C131.572 31.6269 131.868 31.553 132.202 31.516L132.206 31.508ZM132.206 37.6631V32.1757C131.093 32.2496 129.944 32.3236 129.536 33.548C129.271 34.3994 129.208 35.3007 129.351 36.1808C129.354 36.5037 129.425 36.8223 129.559 37.116C129.694 37.4098 129.888 37.6721 130.13 37.886C130.45 38.0884 130.83 38.1766 131.207 38.1361C131.583 38.0957 131.936 37.929 132.206 37.6631ZM85.266 31.507C85.266 30.5435 85.303 29.5419 85.229 28.5404C85.118 27.4649 84.8212 26.2785 83.5978 26.0566C83.2269 25.9826 82.5593 25.8717 82.2984 26.1675C82.0551 26.4609 81.832 26.7705 81.6307 27.0941L79.7396 29.6529C79.6286 29.8008 79.5167 30.0977 79.3688 30.1716C79.2354 30.2088 79.0943 30.2088 78.961 30.1716C78.924 30.1346 78.961 29.8718 78.961 29.8008V26.8352C78.9424 26.6999 78.9424 26.5627 78.961 26.4274C79.0349 26.2425 79.8136 26.1275 80.0365 26.0566C81.0702 25.7937 82.1245 25.6202 83.188 25.5378C84.7582 25.3423 86.3525 25.5465 87.8228 26.1315C88.352 26.3647 88.8132 26.7287 89.1629 27.1893C89.5127 27.6498 89.7394 28.1919 89.8218 28.7643C89.902 29.3789 89.9267 29.9994 89.8958 30.6184V38.0329C89.8958 38.1439 89.8218 38.4407 89.8958 38.5147C89.9767 38.5563 90.065 38.5814 90.1557 38.5886C90.4555 38.6626 90.7114 38.7366 91.0083 38.8115C91.1932 38.8485 91.2312 38.8485 91.2312 39.0344C91.2312 39.2203 91.2681 39.2193 91.0462 39.2943C90.7932 39.4104 90.5331 39.5105 90.2676 39.5942C88.8953 40.002 86.7453 40.1129 85.7438 38.8525C85.6698 38.7416 85.4439 38.2588 85.3359 38.2218C85.188 38.1848 84.7422 38.7776 84.6363 38.8895C84.0229 39.3976 83.2768 39.7191 82.4863 39.8161C81.7739 39.9678 81.0335 39.9199 80.3466 39.6778C79.6597 39.4356 79.0529 39.0086 78.5931 38.4437C78.2221 37.8652 77.9977 37.2048 77.9396 36.52C77.8814 35.8351 77.9911 35.1464 78.2593 34.5136C79.2588 32.2516 82.2264 32.0297 84.3404 31.6589C84.6403 31.6219 84.9341 31.548 85.267 31.511L85.266 31.507ZM85.266 37.6621V32.1757C84.1535 32.2496 83.004 32.3236 82.5962 33.548C82.3312 34.3994 82.2679 35.3007 82.4113 36.1808C82.4145 36.5037 82.4855 36.8223 82.6196 37.116C82.7538 37.4098 82.9481 37.6721 83.19 37.886C83.5105 38.0883 83.8901 38.1763 84.267 38.1357C84.6439 38.095 84.9959 37.9281 85.266 37.6621Z" fill="black"/>
</g>
</g>
</svg>
