<svg width="200" height="44" viewBox="0 0 200 44" fill="none" xmlns="http://www.w3.org/2000/svg">
<g id="The-Telegraph.svg">
<g id="The_Telegraph_logo" style="mix-blend-mode:luminosity">
<path d="M40.6409 32.512C43.5119 32.239 46.382 31.282 46.382 28.2741V18.5699L45.0159 17.202L43.5119 18.5699V25.815L44.7419 26.9089L42.0079 29.3699H41.871L39.1398 27.044L39.8228 26.3601V11.597C39.8019 11.1773 39.6436 10.776 39.3724 10.4549C39.1012 10.1339 38.732 9.91079 38.3216 9.82001V9.54699C38.7035 9.36154 39.1234 9.26773 39.5479 9.27302C39.9716 9.25834 40.3906 9.36645 40.7543 9.58435C41.118 9.80224 41.411 10.1206 41.5979 10.5012H41.7349C41.9958 10.1255 42.343 9.81786 42.7474 9.60416C43.1518 9.39045 43.6015 9.2769 44.0589 9.27302C44.3393 9.25151 44.6207 9.29852 44.8789 9.41001V9.68303C44.4646 9.86527 44.1206 10.1771 43.8988 10.5717C43.6769 10.9663 43.5893 11.4223 43.6489 11.871V18.022L47.3399 14.605H47.6129C47.886 14.878 49.3899 16.245 49.7999 16.519C49.9369 16.656 50.073 16.656 50.3469 16.656C50.6373 16.6277 50.9176 16.5343 51.1669 16.3829V16.7873C50.9636 16.9545 50.7976 17.1626 50.68 17.3981C50.5623 17.6336 50.4955 17.8913 50.4839 18.1543V26.498C50.4839 30.189 46.3829 32.513 40.914 32.923V32.512H40.6409ZM39.2749 9.68303C39.5987 9.85533 39.8707 10.1108 40.063 10.4231C40.2552 10.7354 40.3608 11.0934 40.3689 11.46V26.6387L39.8219 27.1857L42.1459 29.0997L42.8289 28.5527L41.0519 27.0515L41.3249 26.7785V11.597C41.2418 11.0967 40.9958 10.6378 40.6251 10.2917C40.2544 9.94556 39.7797 9.7316 39.2749 9.68303ZM45.6989 31.5551C46.7929 30.872 47.886 30.0539 47.886 28.411V18.022L46.2459 16.245L45.4259 16.928L46.7929 18.4292V28.2712C46.8445 28.8643 46.7741 29.4616 46.5859 30.0264C46.3978 30.5912 46.0959 31.1114 45.6989 31.5551ZM52.5339 18.022C54.4905 17.0344 56.3648 15.8917 58.1389 14.605H58.412C59.5059 15.699 61.009 17.476 62.376 18.706V18.979L56.361 22.807V25.268C57.4467 25.9212 58.5917 26.4704 59.7808 26.908L62.2418 24.584L62.5148 24.857L57.7299 29.505H57.4568C55.8168 28.822 53.7658 27.865 52.3988 27.181C52.6025 26.0987 52.694 24.9983 52.6719 23.8972V18.022H52.5339ZM58.1389 28.548C56.4989 27.8641 55.1319 27.181 53.7649 26.498C53.9177 25.6413 53.9637 24.769 53.9019 23.901V17.749L52.9449 18.296V23.901C52.9997 24.9054 52.9538 25.9127 52.8079 26.908C54.3189 27.7158 55.8703 28.4457 57.4559 29.095L58.1389 28.548ZM56.3619 22.397L59.0959 20.62C58.1389 19.526 57.1819 18.433 56.3619 17.613V22.397ZM57.1819 16.382L56.498 16.929C57.318 17.886 58.412 19.116 59.505 20.346L60.325 19.799C59.0959 18.5699 57.9982 17.339 57.1819 16.382ZM169.686 32.512C172.557 32.239 175.427 31.282 175.427 28.2741V18.5699L174.057 17.202L172.556 18.5699V25.815L173.786 26.9089L171.055 29.368H170.782L168.048 27.044L168.732 26.3601V11.597C168.711 11.1773 168.553 10.776 168.281 10.4549C168.01 10.1339 167.641 9.91079 167.231 9.82001V9.54699C167.614 9.36129 168.035 9.26779 168.461 9.27396C168.884 9.26011 169.301 9.36852 169.664 9.58619C170.027 9.80386 170.319 10.1215 170.506 10.5012H170.643C170.904 10.1256 171.251 9.81807 171.655 9.60437C172.059 9.39067 172.509 9.27705 172.966 9.27302C173.247 9.25151 173.528 9.29852 173.786 9.41001V9.68303C173.372 9.86527 173.028 10.1771 172.806 10.5717C172.584 10.9663 172.496 11.4223 172.556 11.871V18.022L176.11 14.605H176.383C176.656 14.878 178.16 16.245 178.57 16.519C178.707 16.656 178.843 16.656 179.117 16.656C179.408 16.6277 179.688 16.5343 179.937 16.3829V16.9299C179.734 17.097 179.568 17.3051 179.45 17.5406C179.332 17.7761 179.265 18.0338 179.253 18.2969V26.498C179.253 30.189 175.152 32.513 169.683 32.923V32.512H169.686ZM168.319 9.68303C168.637 9.86215 168.904 10.1192 169.096 10.4301C169.287 10.7409 169.396 11.0954 169.413 11.46V26.498L168.866 27.045L171.19 28.959L171.873 28.412L170.096 26.9108L170.369 26.6378V11.597C170.286 11.0965 170.04 10.6376 169.669 10.2914C169.298 9.94528 168.823 9.7314 168.318 9.68303M174.604 31.4181C175.698 30.735 176.791 29.9169 176.791 28.2741V18.022L175.151 16.245L174.468 16.928L175.835 18.4292V28.2712C175.91 28.8567 175.836 29.4516 175.622 30.0014C175.407 30.5512 175.058 31.0386 174.607 31.419L174.604 31.4181ZM87.9399 18.022C89.8965 17.0344 91.7708 15.8917 93.5449 14.605H93.8179C94.9119 15.699 96.415 17.476 97.6459 18.569V18.842L91.7679 22.67V25.131C92.8669 25.7574 94.0088 26.3054 95.1849 26.771L97.6459 24.447L97.919 24.72L93.134 29.368H92.8609C91.2209 28.685 89.17 27.728 87.8029 27.044C88.0066 25.9617 88.0981 24.8613 88.076 23.7602V18.022H87.9399ZM93.407 28.548C91.767 27.8641 90.4 27.181 89.033 26.498C89.1858 25.6413 89.2318 24.769 89.17 23.901V17.749L88.3499 18.159V23.764C88.4047 24.7684 88.3588 25.7758 88.213 26.771C89.724 27.5788 91.2753 28.3087 92.8609 28.958L93.407 28.548ZM91.767 22.2619L94.501 20.4849C93.544 19.3909 92.587 18.2979 91.767 17.4778V22.2619ZM92.587 16.3839L91.767 16.9309C92.587 17.8879 93.681 19.1179 94.774 20.3479L95.594 19.8009C94.501 18.5699 93.407 17.339 92.587 16.382M103.113 11.187V25.5419C103.146 25.8505 103.266 26.1433 103.46 26.3856C103.654 26.6279 103.913 26.8095 104.207 26.9089L105.027 26.0889L105.3 26.3619L102.293 29.506H102.02C101.288 29.341 100.628 28.9466 100.136 28.3801C99.6446 27.8137 99.3466 27.105 99.2859 26.3573V12.964L98.4659 12.144L97.5089 13.101L97.235 12.828L100.653 9.27302H100.926L103.113 11.187ZM102.703 28.411C102.103 28.3325 101.552 28.0405 101.15 27.5885C100.749 27.1364 100.523 26.5547 100.516 25.9501V12.417L99.2859 11.187L98.602 11.87L99.696 12.827V26.3573C99.7262 27.0059 99.9707 27.6262 100.391 28.121C100.812 28.6157 101.385 28.957 102.02 29.0913L102.703 28.411ZM106.667 18.022C108.624 17.0344 110.498 15.8917 112.272 14.605H112.545C113.639 15.699 115.142 17.476 116.373 18.569V18.842L110.495 22.67V25.131C111.58 25.7841 112.724 26.3332 113.912 26.771L116.373 24.447L116.646 24.72L111.861 29.368H111.588C109.948 28.685 107.897 27.728 106.53 27.044C106.734 25.9617 106.825 24.8613 106.803 23.7602V18.022H106.667ZM112.134 28.548C110.494 27.8641 109.127 27.181 107.76 26.498C107.913 25.6413 107.959 24.769 107.897 23.901V17.749L107.077 18.159V23.764C107.132 24.7684 107.086 25.7758 106.94 26.771C108.451 27.5788 110.002 28.3087 111.588 28.958L112.134 28.548ZM110.494 22.2619L113.228 20.4849C112.271 19.3909 111.314 18.2979 110.494 17.4778V22.2619ZM111.314 16.3839L110.631 16.9309C111.451 17.8879 112.545 19.1179 113.638 20.3479L114.321 19.8009C113.229 18.5699 112.134 17.339 111.315 16.382M135.648 18.5699V25.541C135.663 25.84 135.779 26.1249 135.978 26.3486C136.177 26.5723 136.447 26.7213 136.742 26.771L137.562 25.951L137.835 26.224L134.828 29.368H134.691C133.949 29.2251 133.277 28.8377 132.781 28.2678C132.286 27.6979 131.996 26.9783 131.957 26.224V18.296L131.137 17.476L130.18 18.296L129.907 18.023L133.324 14.6059H133.597L135.784 16.7873V18.022L138.518 14.7382H138.791C139.459 15.4428 140.191 16.0835 140.978 16.6522L138.654 19.3862C137.97 18.8392 137.153 18.0192 136.603 17.6092L135.646 18.5662L135.648 18.5699ZM135.375 28.412C134.775 28.3335 134.224 28.0414 133.822 27.5894C133.421 27.1374 133.195 26.5557 133.188 25.951V17.749L132.094 16.519L131.41 17.202L132.367 18.159V26.2278C132.397 26.8764 132.642 27.4967 133.062 27.9915C133.483 28.4863 134.056 28.8275 134.691 28.9618L135.374 28.4148L135.375 28.412ZM136.876 17.3409C137.391 17.8748 137.939 18.3762 138.516 18.842L139.063 18.159C138.516 17.749 137.696 16.929 137.286 16.6578L136.876 17.3409ZM144.531 29.5069L141.247 27.3199V22.943C142.067 22.3961 143.844 21.166 144.664 20.619C143.434 20.0624 142.356 19.2184 141.52 18.1581V17.885C143.161 16.9918 144.677 15.8878 146.031 14.6012H146.304C146.304 14.6012 150.405 16.5152 150.542 16.6513C150.708 16.7468 150.898 16.7942 151.089 16.7882C151.38 16.76 151.66 16.6666 151.909 16.5152V16.9252C151.527 17.2285 151.282 17.6708 151.225 18.1553V25.4003C151.243 25.7344 151.375 26.0523 151.599 26.3011C151.823 26.5498 152.125 26.7143 152.455 26.7673L153.275 25.9473L153.548 26.2203L150.541 29.3643H150.414C149.732 29.1969 149.111 28.8375 148.627 28.3287C148.142 27.8199 147.814 27.183 147.68 26.4933L144.809 29.3643H144.536L144.531 29.5069ZM145.214 28.4129L142.482 26.6387V22.533L141.662 23.08V27.044L144.669 28.958L145.214 28.4129ZM147.538 21.3049V19.116L143.576 17.0688C143.303 17.3418 142.209 17.8888 141.936 18.1628C143.508 19.6684 145.437 20.7503 147.541 21.3068M151.095 28.4148C150.001 28.0048 148.908 27.3208 148.908 25.8178V18.296L144.807 16.246C144.67 16.3829 144.26 16.656 144.124 16.7929L148.088 18.843V26.225C148.088 27.592 149.455 28.6859 150.412 29.096L151.095 28.4148ZM147.541 26.0908V21.713C146.654 21.4546 145.786 21.1348 144.944 20.756V26.224L146.445 27.181L147.541 26.0908ZM117.877 27.1848V18.022L122.798 14.605H123.071C124.028 15.015 127.172 16.382 127.445 16.519C127.582 16.519 127.718 16.656 127.992 16.656C128.322 16.6113 128.645 16.5194 128.949 16.3829V16.9299C128.594 17.2548 128.354 17.6866 128.265 18.1599V25.9473C128.201 26.5827 128.265 27.2245 128.453 27.8349C128.641 28.4453 128.949 29.0119 129.359 29.5013V29.7743C128.265 30.8683 125.805 33.4653 124.711 34.6953H124.574C123.251 34.0449 121.809 33.6726 120.336 33.6013C119.211 33.5605 118.104 33.8973 117.192 34.5583L116.919 34.426C117.739 32.512 119.516 30.462 121.84 30.462C123.578 30.5531 125.268 31.0685 126.761 31.9632C125.529 30.4516 124.811 28.5864 124.712 26.6387L121.841 29.3727H121.568L117.877 27.1848ZM120.203 32.512C119.706 32.514 119.216 32.6251 118.767 32.8377C118.318 33.0503 117.922 33.359 117.606 33.7421V33.879C118.399 33.4454 119.302 33.2551 120.203 33.3321C121.668 33.3424 123.113 33.6688 124.441 34.2891L124.988 33.606C123.482 32.9245 121.855 32.5525 120.203 32.512ZM121.297 29.095L121.981 28.548L119.11 26.498V17.749L118.29 18.296V27.045L121.297 29.095ZM125.671 17.749L121.57 16.109V16.929L124.714 18.296V26.498C124.799 28.4098 125.52 30.2384 126.764 31.693L127.447 31.0099C126.327 29.7172 125.698 28.0718 125.67 26.3619L125.671 17.749ZM124.441 26.088V18.5699L121.704 17.339V25.951L123.481 27.045L124.441 26.088ZM159.437 18.0192L162.986 14.605H163.259C163.954 15.2813 164.684 15.9202 165.446 16.519C165.5 16.5709 165.565 16.6102 165.636 16.6339C165.707 16.6576 165.782 16.6651 165.856 16.656C166.147 16.6277 166.427 16.5343 166.676 16.3829V16.9299C166.291 17.2883 166.048 17.7737 165.992 18.2969V27.0459C164.381 27.5239 162.952 28.4767 161.891 29.7799H161.754L159.43 29.2329V31.1422L160.66 32.2362L157.789 34.6972H157.652L154.918 32.3732L155.602 31.5532V28.2694C155.224 28.2435 154.854 28.151 154.508 27.9963V27.5863C154.781 27.4494 155.738 26.6293 155.738 25.9463V18.432L154.918 17.612L153.961 18.569L153.688 18.296L157.105 14.879H157.378L159.57 17.0688V18.0258L159.437 18.0192ZM156.02 31.8262L155.473 32.3732L157.66 34.2872L158.344 33.7402L156.567 32.239L156.84 31.966V17.749L155.61 16.519L155.063 17.066L156.02 18.023V31.829V31.8262ZM162.171 26.4952V18.5699L160.8 17.202L159.299 18.569V25.814C159.982 26.087 161.896 26.361 162.17 26.498M161.76 29.369C161.908 29.1156 162.092 28.8855 162.307 28.6859L159.3 28.139V28.959L161.76 29.369ZM161.074 17.0688L162.575 18.5699V26.498L163.395 26.088V18.0192L161.757 16.382L161.074 17.0688ZM21.0939 21.44C21.0939 17.886 23.6909 15.562 26.1519 14.468L26.2888 14.741C25.7924 15.2946 25.4148 15.9442 25.1795 16.6496C24.9442 17.3551 24.8562 18.1012 24.9209 18.842C24.8051 20.7171 25.3895 22.5683 26.5609 24.037C26.8818 23.5986 27.0715 23.078 27.1079 22.5358V18.979L31.4819 15.835L31.6189 16.108C31.2554 16.6287 31.0638 17.25 31.071 17.885V20.209C31.071 21.8491 28.474 23.6261 26.833 24.1731C27.4033 24.6938 28.0721 25.0949 28.8 25.3527C29.5279 25.6105 30.3001 25.7199 31.071 25.6742C31.6212 25.6966 32.1721 25.6506 32.711 25.5372V15.562C31.317 15.4475 29.9409 15.1724 28.61 14.742C27.3767 14.3009 26.0905 14.0249 24.7849 13.921C23.0069 13.921 20.8199 14.468 20.8199 17.0688V17.885L20.4099 18.022C20.1528 17.2735 20.0144 16.4893 19.9999 15.698C19.9863 14.9107 20.1337 14.1289 20.433 13.4006C20.7323 12.6723 21.1771 12.0127 21.7403 11.4624C22.3034 10.912 22.9731 10.4825 23.7081 10.2001C24.4431 9.91768 25.2281 9.78834 26.0149 9.82001C27.5047 9.88147 28.9779 10.1577 30.3889 10.64C31.7094 11.1091 33.0906 11.3853 34.4899 11.46C34.6369 11.4736 34.785 11.4546 34.9238 11.4045C35.0627 11.3544 35.1888 11.2743 35.2932 11.17C35.3976 11.0657 35.4777 10.9397 35.528 10.8009C35.5782 10.6621 35.5973 10.514 35.5839 10.367C35.6035 10.2411 35.5977 10.1126 35.5669 9.98898C35.536 9.86537 35.4808 9.74917 35.4044 9.64723C35.328 9.54529 35.2319 9.45967 35.1219 9.39541C35.0119 9.33114 34.8902 9.28953 34.7639 9.27302V9C36.4039 9.27302 38.0477 10.23 38.0477 12.2838C38.1847 14.3338 36.4076 15.5676 33.3997 15.5676H33.1267V25.677C34.0032 25.5471 34.8393 25.2216 35.5729 24.7246C36.3065 24.2276 36.9189 23.5719 37.3646 22.8061L37.6377 22.943C36.5409 26.3573 33.9429 29.6411 29.4319 29.6411C24.9209 29.6411 21.0929 26.9071 21.0929 21.4391M33.3969 14.331C30.1131 14.331 27.1107 12.691 24.7849 12.691C23.1448 12.691 21.3678 13.374 20.8208 15.152H20.9569C21.6399 13.921 23.2837 13.511 24.7849 13.511C27.2458 13.511 30.1159 15.151 33.3969 15.151C35.9939 15.151 37.6349 14.194 37.7709 12.144H37.6386C37.3571 13.785 35.9939 14.331 33.3969 14.331ZM23.9639 16.382C23.2547 17.0242 22.6831 17.8035 22.2837 18.6729C21.8842 19.5422 21.6652 20.4836 21.6399 21.44C21.6399 26.635 25.0569 29.2273 29.5689 29.2273C30.65 29.2002 31.7149 28.9572 32.7008 28.5127C33.6867 28.0681 34.5738 27.431 35.3099 26.6387L35.1729 26.5017C33.5724 27.8468 31.5194 28.5312 29.4319 28.4157C25.8779 28.4157 22.4599 26.2287 22.4599 21.4437C22.4787 19.6507 22.9987 17.8987 23.9611 16.3857L23.9639 16.382ZM28.3379 22.26V18.432L27.5179 19.1151V22.67C27.5179 23.08 27.3809 23.353 27.3809 23.627H27.5179C27.9617 23.2981 28.2567 22.8064 28.3379 22.26ZM69.758 21.44C69.758 17.886 72.355 15.562 74.816 14.468L74.953 14.741C74.4292 15.2811 74.0248 15.9253 73.7662 16.6319C73.5076 17.3384 73.4005 18.0914 73.4518 18.842C73.336 20.7171 73.9204 22.5683 75.0918 24.037C75.4127 23.5986 75.6024 23.078 75.6388 22.5358V18.979L80.1498 15.6952L80.2868 15.9682C79.8838 16.5214 79.6899 17.1996 79.7398 17.8822V20.2062C79.7398 21.8462 77.1428 23.6233 75.5018 24.1702C76.0721 24.6909 76.7409 25.0921 77.4688 25.3499C78.1967 25.6077 78.9689 25.7171 79.7398 25.6714C80.29 25.6938 80.8409 25.6478 81.3798 25.5344V15.562C79.9858 15.4475 78.6097 15.1724 77.2788 14.742C76.0446 14.301 74.7574 14.0253 73.4508 13.922C71.6738 13.922 69.4868 14.4689 69.4868 17.066V17.885L69.2138 18.022C68.9567 17.2735 68.8183 16.4893 68.8038 15.698C68.7903 14.9107 68.9376 14.1289 69.2369 13.4006C69.5362 12.6723 69.981 12.0127 70.5442 11.4624C71.1073 10.912 71.777 10.4825 72.512 10.2001C73.247 9.91768 74.032 9.78834 74.8188 9.82001C76.3087 9.88147 77.7819 10.1577 79.1928 10.64C80.5133 11.1091 81.8945 11.3853 83.2938 11.46C83.4409 11.4736 83.5891 11.4546 83.728 11.4045C83.8669 11.3543 83.993 11.2741 84.0975 11.1697C84.2019 11.0653 84.282 10.9391 84.3322 10.8003C84.3824 10.6614 84.4014 10.5131 84.3878 10.3661C84.4072 10.24 84.4012 10.1114 84.3702 9.98774C84.3391 9.86407 84.2836 9.74787 84.2069 9.646C84.1302 9.54413 84.0339 9.45864 83.9237 9.39458C83.8134 9.33053 83.6914 9.2892 83.565 9.27302V9C85.205 9.27302 86.8488 10.23 86.8488 12.2838C86.8488 14.7448 85.0718 15.8378 82.0638 15.8378H81.7908V25.951C82.6673 25.8211 83.5034 25.4956 84.237 24.9986C84.9706 24.5016 85.583 23.8459 86.0288 23.08L86.3018 23.217C85.2069 26.6387 82.608 29.915 78.097 29.915C73.586 29.642 69.758 26.908 69.758 21.44ZM82.061 14.331C78.7772 14.331 75.7748 12.691 73.449 12.691C72.6163 12.6489 71.7906 12.862 71.0822 13.3018C70.3739 13.7415 69.8166 14.387 69.4849 15.152H69.6219C70.305 13.922 71.9459 13.5119 73.4499 13.5119C75.9109 13.5119 78.7809 15.152 82.0619 15.152C84.6589 15.152 86.2999 14.195 86.4359 12.1449H86.299C85.889 13.785 84.6589 14.331 82.061 14.331ZM72.629 16.382C71.9198 17.0242 71.3482 17.8035 70.9487 18.6729C70.5493 19.5422 70.3303 20.4836 70.305 21.44C70.305 26.635 73.722 29.2273 78.2339 29.2273C79.3151 29.2002 80.3799 28.9572 81.3658 28.5127C82.3517 28.0681 83.2388 27.431 83.975 26.6387L83.838 26.5017C82.2374 27.8468 80.1844 28.5312 78.097 28.4157C74.5429 28.4157 71.125 26.2287 71.125 21.4437C71.1438 19.6507 71.6638 17.8987 72.6261 16.3857L72.629 16.382ZM77.003 22.26V18.432L76.183 18.979V22.533C76.183 22.943 76.046 23.2161 76.046 23.49H76.183C76.4101 23.368 76.6036 23.192 76.7466 22.9775C76.8896 22.763 76.9777 22.5166 77.003 22.26Z" fill="black"/>
</g>
</g>
</svg>
